 <svg version="1.0" xmlns="http://www.w3.org/2000/svg" width="700.000000pt" height="663.000000pt" viewBox="0 0 700.000000 663.000000" preserveAspectRatio="xMidYMid meet">
<metadata>
Created by potrace 1.12, written by Peter Selinger 2001-2015
</metadata>
Hexagon background color
<g transform="translate(0.000000,663.000000) scale(0.100000,-0.100000)" fill="#68a568" stroke="none">
<path d="M3318 6145 c-2 -3 -33 -16 -69 -29 -35 -13 -125 -50 -199 -81 -74
-31 -162 -67 -195 -80 -70 -27 -321 -130 -350 -144 -20 -10 -44 -20 -275 -113
-69 -27 -129 -53 -135 -58 -5 -4 -23 -10 -39 -14 -16 -4 -48 -16 -70 -27 -23
-11 -120 -52 -216 -90 -96 -39 -197 -81 -225 -93 -27 -12 -75 -33 -106 -45
-55 -22 -58 -25 -87 -89 -16 -37 -48 -119 -71 -182 -24 -63 -62 -164 -85 -225
-44 -113 -92 -238 -145 -380 -17 -44 -46 -123 -66 -175 -32 -85 -82 -217 -150
-395 -12 -33 -41 -109 -63 -170 -23 -60 -66 -175 -97 -255 -30 -80 -55 -153
-55 -162 0 -9 9 -38 21 -65 12 -26 29 -70 39 -98 10 -27 43 -115 75 -195 32
-80 67 -172 80 -205 59 -156 109 -284 127 -325 12 -25 29 -67 39 -95 9 -27 37
-102 62 -165 25 -63 77 -198 117 -300 39 -102 88 -228 109 -280 21 -52 48
-123 60 -157 13 -34 31 -69 40 -77 9 -8 95 -45 191 -82 96 -36 194 -74 217
-85 22 -10 112 -46 200 -79 87 -33 172 -67 190 -75 35 -15 285 -115 348 -138
22 -8 103 -41 180 -72 77 -31 174 -69 215 -85 41 -15 149 -58 240 -94 91 -37
173 -69 183 -71 9 -2 21 -7 27 -10 5 -3 36 5 67 18 123 52 411 180 466 208 32
16 62 29 67 29 6 0 34 12 63 26 28 14 81 38 117 54 107 46 387 171 630 280 47
22 128 58 180 81 52 23 142 63 199 89 116 54 116 54 190 218 87 194 273 599
292 636 11 21 28 60 38 85 10 25 58 143 106 261 48 118 123 305 167 415 44
110 93 232 109 271 l29 72 -21 63 c-12 35 -33 98 -49 139 -15 41 -33 91 -39
110 -7 19 -33 91 -57 160 -25 69 -63 175 -84 235 -22 61 -62 173 -90 250 -28
77 -67 185 -86 240 -67 187 -93 260 -149 415 -31 85 -70 196 -87 245 -17 50
-41 113 -53 141 -22 48 -26 52 -97 78 -300 115 -483 187 -525 206 -24 11 -47
20 -53 20 -5 0 -56 18 -112 41 -57 23 -134 54 -173 69 -38 15 -137 53 -220 84
-82 31 -181 70 -220 86 -38 16 -124 50 -190 75 -110 42 -256 98 -379 146 -47
18 -87 24 -98 14z"></path>
</g>
Body background
<g transform="translate(0.000000,663.000000) scale(0.100000,-0.100000)" fill="#ffffff" stroke="none">
<path d="M2540 3443 c-8 -3 -49 -22 -90 -41 -41 -19 -81 -36 -90 -37 -12 -3
-481 -224 -802 -379 -103 -49 -104 -65 -13 -156 36 -35 65 -67 65 -70 0 -3 39
-47 88 -97 l87 -91 87 -6 c48 -4 93 -9 100 -11 7 -2 49 -9 94 -14 138 -17 223
-58 336 -163 89 -83 128 -135 128 -172 0 -17 7 -42 16 -54 8 -13 13 -31 9 -42
-3 -11 5 -81 19 -157 14 -76 28 -163 32 -193 14 -123 229 -1011 244 -1010 6 1
37 47 341 495 159 233 154 228 173 206 9 -10 36 -46 59 -80 42 -62 106 -153
306 -440 59 -85 115 -159 125 -165 13 -9 20 -7 32 9 8 11 17 31 20 45 3 14 23
84 44 155 21 72 47 162 58 200 45 157 64 221 73 237 5 10 9 26 9 35 0 10 16
63 34 118 l33 100 622 2 c343 1 629 4 636 7 12 4 15 53 18 258 1 139 6 264 11
278 6 19 5 21 -3 10 -8 -11 -11 75 -11 305 0 237 3 324 12 333 9 9 9 12 0 12
-8 0 -12 17 -12 45 l0 45 -1317 2 -1316 3 -44 100 c-24 55 -46 109 -50 120 -3
11 -15 40 -26 65 -12 25 -35 79 -51 120 -31 76 -46 89 -86 73z"></path>
</g>
Outlines
<g transform="translate(0.000000,663.000000) scale(0.100000,-0.100000)" fill="#000000" stroke="none">
<path d="M2960 6129 c-201 -83 -630 -259 -955 -391 -324 -132 -606 -248 -625
-258 -63 -32 -16 69 -545 -1180 -92 -217 -214 -505 -272 -640 -58 -135 -107
-261 -110 -280 -5 -35 104 -309 672 -1690 64 -157 126 -308 136 -336 23 -61
48 -86 114 -114 250 -107 1970 -790 1989 -790 32 0 18 -6 596 235 564 234 787
326 1135 470 143 59 276 116 296 126 49 24 87 71 95 117 4 20 94 248 201 507
107 259 284 687 394 952 109 264 199 493 199 508 0 14 -72 214 -161 443 -89
229 -210 543 -269 697 -60 154 -156 404 -215 555 -59 151 -116 300 -126 331
-38 107 0 88 -689 349 -85 32 -270 102 -410 155 -140 54 -300 114 -355 135
-55 21 -197 75 -315 120 -306 117 -346 130 -382 129 -18 0 -196 -67 -398 -150z
m784 -350 c204 -78 531 -202 726 -276 672 -255 725 -275 732 -286 3 -6 41
-101 84 -211 42 -111 133 -345 201 -521 69 -176 153 -394 188 -485 35 -91 105
-270 154 -399 l91 -233 -97 -234 -97 -234 -45 45 c-25 26 -63 57 -86 71 -60
34 -247 99 -332 114 -111 20 -274 8 -413 -29 -63 -17 -158 -43 -210 -57 -188
-51 -355 -43 -665 31 -171 41 -290 43 -460 10 -130 -26 -146 -27 -232 -16
-207 25 -506 93 -536 121 -5 4 -1 33 8 65 13 42 16 83 13 146 -4 75 -8 94 -34
135 -34 55 -82 84 -139 84 -52 0 -75 -15 -238 -152 l-135 -113 -153 -43 c-248
-69 -502 -180 -573 -249 -48 -46 -71 -96 -86 -186 -28 -161 27 -281 156 -339
52 -22 191 -43 229 -34 73 19 99 109 47 167 -23 25 -38 32 -92 39 -123 15
-145 36 -134 122 8 65 31 93 104 125 30 14 78 35 105 48 78 37 249 93 365 121
57 13 114 31 126 39 11 7 69 54 129 104 59 50 111 91 115 91 11 0 -7 -65 -31
-112 -31 -60 -25 -100 21 -153 22 -25 40 -51 40 -56 0 -16 115 -64 210 -88 47
-12 94 -26 105 -30 27 -12 170 -38 277 -51 132 -16 241 -13 377 9 67 12 140
21 161 21 51 0 230 -32 365 -66 92 -23 138 -28 280 -31 185 -4 158 -9 475 76
270 73 309 74 505 10 146 -47 177 -65 216 -126 61 -97 61 -103 -13 -286 -37
-89 -87 -211 -113 -272 -26 -60 -56 -135 -67 -165 -11 -30 -49 -122 -83 -205
-35 -82 -73 -176 -86 -208 -13 -32 -28 -62 -34 -66 -5 -4 -138 -61 -295 -126
-157 -64 -381 -157 -499 -206 -117 -49 -217 -89 -221 -89 -4 0 -15 60 -25 133
-9 72 -21 136 -26 141 -9 10 -22 14 -67 21 -27 4 -102 53 -102 66 0 15 -30 10
-36 -6 -3 -8 6 -109 22 -225 17 -128 24 -214 18 -219 -18 -16 -193 -83 -202
-77 -5 3 -13 33 -16 67 -11 92 -60 278 -89 335 -27 53 -104 132 -156 159 -52
26 -122 45 -173 45 -89 0 -123 -51 -202 -302 -46 -146 -91 -257 -117 -290 -13
-15 -21 -14 -109 21 -52 21 -96 43 -98 49 -2 6 8 32 21 59 21 40 77 220 77
246 0 4 -20 7 -44 7 -24 0 -67 10 -95 21 -28 12 -54 19 -57 16 -3 -3 -18 -47
-33 -99 -15 -51 -37 -112 -49 -135 -20 -37 -25 -41 -45 -34 -324 128 -975 394
-983 404 -7 6 -139 323 -294 702 -418 1023 -450 1103 -450 1121 0 14 172 424
555 1324 62 146 136 319 163 385 l51 120 328 134 c180 74 578 236 883 362 305
125 559 228 564 228 5 1 176 -62 380 -140z m-366 -4433 c41 -21 60 -47 82
-112 24 -70 60 -260 60 -319 0 -39 -2 -41 -42 -57 -24 -9 -59 -23 -78 -31 -34
-14 -39 -14 -127 22 -50 20 -94 39 -97 42 -4 3 11 44 33 90 22 46 60 150 86
232 26 81 49 147 51 147 3 0 17 -6 32 -14z"></path>
<path d="M2364 4882 c-50 -40 -56 -88 -19 -147 54 -87 84 -160 78 -187 -6 -33
-13 -34 -88 -8 -71 24 -98 25 -135 3 -54 -32 -66 -102 -26 -150 19 -22 48 -37
115 -57 80 -25 91 -31 91 -51 0 -49 -54 -206 -109 -320 -127 -258 -211 -352
-347 -385 l-51 -13 -129 92 c-71 51 -140 100 -153 110 l-25 17 23 111 c24 121
22 150 -13 182 -36 34 -84 37 -126 9 -31 -21 -37 -33 -54 -103 -10 -44 -20
-82 -22 -83 -1 -2 -31 12 -67 32 -72 40 -85 43 -127 21 -59 -30 -75 -111 -32
-158 9 -11 91 -63 182 -117 229 -136 225 -133 116 -125 -48 4 -136 18 -194 31
-138 31 -147 31 -188 -10 -43 -43 -46 -90 -9 -134 53 -63 354 -109 645 -99
262 9 398 54 521 174 81 78 142 169 228 341 98 196 119 270 176 628 16 99 16
103 -5 165 -25 75 -100 199 -137 229 -32 25 -90 26 -119 2z"></path>
<path d="M3191 4499 c-128 -25 -207 -144 -180 -269 16 -74 70 -128 213 -213
139 -82 166 -107 166 -152 0 -63 -74 -98 -157 -76 -66 18 -101 54 -120 123
-20 71 -49 94 -83 63 -18 -16 -20 -31 -20 -142 0 -68 5 -133 10 -144 14 -24
52 -25 74 0 17 18 18 18 79 -1 80 -25 193 -21 253 10 119 61 166 195 109 308
-30 58 -80 99 -205 169 -166 91 -200 136 -145 190 18 19 35 25 67 25 81 0 148
-56 163 -137 7 -40 30 -73 50 -73 7 0 19 8 28 18 14 15 17 42 17 149 0 113 -2
132 -18 146 -24 22 -31 21 -58 -4 -22 -20 -25 -21 -61 -6 -52 20 -129 27 -182
16z"></path>
<path d="M3734 4469 c-27 -30 -4 -60 57 -73 21 -5 28 -13 33 -43 8 -50 6 -466
-2 -523 -6 -40 -10 -45 -39 -51 -61 -12 -81 -49 -45 -82 16 -14 43 -17 174
-17 152 0 155 0 178 25 l23 25 -22 24 c-13 14 -38 26 -55 28 l-31 3 0 118 c0
70 4 118 10 119 6 1 61 -68 122 -153 62 -84 122 -162 134 -171 32 -27 209 -26
232 0 10 10 17 25 17 34 0 20 -32 48 -56 48 -38 0 -85 41 -152 132 -38 51 -77
105 -86 120 l-18 27 39 19 c75 39 113 104 113 194 0 98 -67 175 -175 203 -43
11 -110 15 -246 15 -175 0 -187 -1 -205 -21z m371 -103 c39 -17 65 -60 65
-110 0 -52 -47 -102 -108 -115 -25 -5 -50 -7 -54 -5 -10 6 -11 228 -1 237 11
12 62 8 98 -7z"></path>
<path d="M4624 4469 c-28 -31 -4 -60 59 -74 l27 -5 -2 -302 -3 -302 -32 -7
c-61 -12 -81 -49 -45 -82 16 -14 43 -17 174 -17 152 0 155 0 178 25 l23 25
-22 24 c-13 14 -38 26 -55 28 l-31 3 0 130 0 130 46 3 c62 4 95 -10 104 -45 8
-32 32 -63 50 -63 7 0 19 8 28 18 14 15 17 41 17 144 0 108 -2 127 -18 141
-35 32 -64 18 -77 -36 -10 -37 -35 -49 -98 -45 l-52 3 0 105 0 105 85 3 c101
3 127 -8 155 -62 26 -49 49 -65 73 -50 14 9 18 28 20 99 4 133 25 125 -308
125 -267 0 -278 -1 -296 -21z"></path>
</g>
Body accent patches
<g transform="translate(0.000000,663.000000) scale(0.100000,-0.100000)" fill="#A9A9A9" stroke="none">
<path d="M2299 3166 c-4 -4 -184 -53 -228 -62 -80 -16 -416 -159 -439 -187
-17 -20 -33 -112 -25 -147 7 -39 40 -55 118 -59 l60 -3 1 46 c2 86 37 113 198
147 191 40 230 56 283 111 36 37 63 94 63 133 0 22 -18 34 -31 21z"></path>
<path d="M5060 2944 c-43 -8 -183 -45 -227 -59 -23 -8 -52 -16 -65 -19 -13 -2
-70 -16 -128 -30 -205 -51 -300 -46 -680 33 -222 47 -262 49 -379 21 -154 -37
-386 -28 -606 24 -33 8 -63 11 -67 7 -13 -12 149 -178 220 -224 137 -91 210
-97 448 -36 154 39 163 40 284 36 132 -5 182 -17 290 -72 137 -68 238 -162
333 -306 34 -52 77 -104 94 -115 47 -31 108 -37 240 -23 64 6 151 9 193 6 106
-7 158 -36 254 -138 42 -45 78 -80 80 -78 2 2 23 49 45 104 23 55 59 141 80
190 47 110 73 174 118 288 l35 87 -23 62 c-25 67 -66 121 -109 143 -16 8 -81
32 -146 54 -115 38 -225 55 -284 45z"></path>
<path d="M2436 2359 c-14 -17 -26 -36 -26 -42 0 -7 12 -83 26 -170 26 -156 27
-160 11 -255 -19 -119 -11 -179 39 -270 47 -86 78 -124 147 -179 104 -81 190
-100 289 -63 182 68 451 445 409 573 -26 78 -72 92 -232 70 -111 -15 -122 -15
-164 2 -63 24 -125 75 -278 231 -114 116 -136 134 -164 134 -23 0 -38 -8 -57
-31z"></path>
<path d="M3792 2217 c-44 -45 -63 -106 -69 -217 -6 -109 12 -201 68 -336 26
-65 44 -91 98 -144 82 -80 113 -95 223 -111 185 -26 430 28 843 186 122 47
215 75 246 75 39 0 45 34 11 59 -67 47 -212 65 -321 40 -77 -17 -272 -28 -356
-18 -155 17 -262 95 -495 358 -129 147 -186 172 -248 108z"></path>
</g>
</svg>