<svg xmlns="http://www.w3.org/2000/svg" version="1.0" width="640.70447pt" height="640.88977pt" viewBox="0 0 597.99084 640.88977" preserveAspectRatio="xMidYMid meet">
<metadata>
	Created by potrace 1.12, written by Peter Selinger 2001-2015
</metadata>
  <!--The background part of the reindeer -->
  <g
     transform="matrix(0.1,0,0,-0.1,-34.946137,915.05387)"
     fill="#000000"
     stroke="none"
     id="g971">
    <path
       d="m 4610,5693 c -19,-3 -39,-9 -44,-14 -6,-5 -20,-9 -33,-9 -23,0 -78,-32 -147,-84 -38,-30 -81,-54 -197,-113 -70,-35 -100,-47 -111,-45 -4,1 -20,-3 -35,-10 -15,-6 -104,-14 -198,-18 -93,-4 -183,-11 -198,-15 -22,-6 -33,-3 -52,15 -21,20 -25,21 -47,6 -12,-8 -45,-40 -72,-71 -44,-49 -130,-105 -161,-105 -13,0 -85,-72 -85,-85 0,-6 -27,-39 -60,-75 -62,-66 -79,-94 -100,-165 -7,-22 -18,-49 -25,-60 -6,-11 -15,-35 -18,-52 -4,-18 -15,-51 -26,-73 -11,-23 -23,-67 -26,-98 -6,-53 -15,-88 -35,-137 -5,-11 -11,-180 -15,-375 -6,-336 -5,-357 12,-372 27,-24 91,-58 111,-58 9,0 41,-11 71,-25 29,-14 72,-28 94,-32 23,-3 55,-14 72,-24 16,-9 52,-20 79,-24 47,-6 63,-12 133,-41 17,-8 37,-14 44,-14 7,0 20,-7 29,-15 15,-14 21,-13 63,10 25,14 78,32 119,40 66,12 129,31 183,54 11,5 36,16 55,24 19,8 60,27 91,41 31,14 58,26 61,26 15,0 290,138 338,170 66,44 138,88 240,147 99,57 243,183 302,263 26,36 61,81 78,100 59,68 190,258 190,276 0,3 16,24 35,47 19,22 39,54 43,71 14,52 9,353 -5,367 -7,7 -13,23 -13,36 0,22 -17,75 -47,141 -16,37 -44,80 -90,139 -16,21 -33,46 -36,56 -4,9 -11,17 -18,17 -6,0 -25,12 -42,26 -34,29 -127,77 -172,89 -35,10 -44,12 -110,24 -27,5 -68,14 -90,20 -40,11 -70,11 -135,4 z" />
  </g>
  <!-- The circle -->
  <circle
     cx="295.05386"
     cy="320.05386"
     r="245"
     stroke="#309e2c"
     stroke-width="18"
     fill="transparent"
     style="display:inline;fill:none" />
  <!--The text -->
  <g transform="translate(-34.946137,10.053872)">
    <path
       d="m 73.66598,374.56718 q 1.397396,5.75271 1.084527,11.92086 -0.04659,1.16389 -1.134936,1.42826 l -10.728029,2.60595 q -1.16609,0.28326 -1.449346,-0.88283 l -1.057489,-4.3534 q -0.283256,-1.16609 0.901718,-1.37161 l 5.265187,-1.03199 q 1.110395,-3.56278 0.185092,-7.37201 -0.925303,-3.80923 -3.357559,-5.6882 -2.335633,-1.82012 -5.600685,-1.027 -3.265053,0.79312 -4.854154,3.40194 -1.511362,2.58994 -2.044223,6.8357 -0.532861,4.24576 -0.756013,5.69951 -0.223151,1.45376 -1.095919,4.30021 -0.853885,2.92418 -2.047676,4.44907 -1.097169,1.58373 -3.2616,3.17974 -2.145547,1.67375 -5.099642,2.39133 -7.696194,1.86949 -13.239272,-1.9706 -5.446455,-3.78124 -7.618084,-12.72126 -1.605117,-6.60784 -1.151244,-13.55119 0.04659,-1.16388 1.134935,-1.42825 l 12.360555,-3.00252 q 1.16609,-0.28325 1.449346,0.88284 l 1.057489,4.3534 q 0.283256,1.16609 -0.901718,1.37161 l -6.5279,1.25639 q -0.687383,1.23722 -0.976004,3.77712 -0.191998,2.59875 0.412282,5.08641 2.341583,9.63968 10.193256,7.73242 3.809227,-0.9253 5.362766,-4.01944 1.631277,-3.11303 1.952008,-7.55424 0.417354,-4.38235 0.918105,-6.7268 0.57849,-2.36334 1.760011,-4.95548 2.207563,-5.14652 8.970885,-6.7894 6.763323,-1.64289 12.327489,1.9451 5.564166,3.58799 7.565842,11.82836 z"
       id="path1076" />
    <path
       d="m 74.854065,387.50033 3.866868,-1.53392 q 1.115443,-0.44248 1.557922,0.67296 l 4.45429,11.22879 q 0.442479,1.11544 -0.672964,1.55792 l -22.903754,9.08557 q 7.824038,1.71594 10.7444,9.07786 4.572285,11.52624 -8.069398,16.541 l -19.11125,7.58114 1.740418,4.38741 q 0.442479,1.11544 -0.672963,1.55792 l -3.643779,1.44544 q -1.115443,0.44247 -1.557922,-0.67297 l -6.460196,-16.28546 q -0.442479,-1.11544 0.672963,-1.55792 l 3.64378,-1.44543 q 1.115442,-0.44248 1.557921,0.67296 l 1.415934,3.56942 15.393108,-6.10622 q 4.684859,-1.85841 6.369403,-3.90367 1.684545,-2.04527 0.209614,-5.76341 -1.47493,-3.71814 -4.67927,-5.28716 -3.204339,-1.56901 -6.030127,-0.44807 l -17.103453,6.78468 1.799415,4.53614 q 0.442479,1.11544 -0.672963,1.55792 l -3.64378,1.44543 q -1.115442,0.44248 -1.557921,-0.67296 l -6.696185,-16.88037 q -0.442479,-1.11544 0.672964,-1.55792 l 3.643779,-1.44543 q 1.115442,-0.44248 1.557921,0.67296 l 1.592925,4.0156 43.502262,-17.25669 -1.592925,-4.0156 q -0.442479,-1.11544 0.672963,-1.55792 z"
       id="path1078" />
    <path
       d="m 59.697807,443.46259 q 5.206912,-2.98128 9.939576,-3.57077 4.732663,-0.58949 8.147344,0.86624 6.501835,2.82243 9.801125,8.58475 2.424779,4.23496 2.775214,7.90609 0.350435,3.67113 -0.470941,6.26167 -0.781626,2.65998 -3.408617,5.63906 -2.587241,3.0485 -6.961047,5.55278 -9.303017,5.32657 -16.865834,3.38817 -7.453641,-1.90873 -11.627441,-9.19841 -4.173799,-7.28967 -2.145271,-13.89006 2.137705,-6.57071 10.815892,-11.53952 z m -2.659726,22.72545 q 2.385028,4.16553 6.513013,4.291 4.237161,0.15514 10.346605,-3.3429 6.109443,-3.49804 8.051152,-7.19098 2.050885,-3.66326 -0.413644,-7.96764 -4.571305,-7.98393 -15.818236,-1.54436 -13.329695,7.6321 -8.67889,15.75488 z"
       id="path1080" />
    <path
       d="m 98.763754,480.60283 q 3.375936,-0.83227 6.992016,0.25543 3.68009,1.0397 5.84033,3.91952 2.16023,2.87982 2.80039,4.79977 0.32008,0.95997 -0.57586,1.63205 l -8.63947,6.48071 q -0.95994,0.72008 -1.68002,-0.23987 l -3.12034,-4.15974 q -0.720082,-0.95994 0.28786,-1.61602 l 3.9038,-2.52832 q -0.17603,-0.36799 -0.7521,-1.13594 -2.20824,-2.94382 -6.080247,-3.0395 -3.808012,-0.14369 -7.839763,2.88064 l -11.967262,8.97699 5.280578,7.03956 q 0.720079,0.95994 -0.239862,1.68002 l -3.135806,2.35226 q -0.959941,0.72008 -1.68002,-0.23986 L 64.956531,490.06161 q -0.720079,-0.95994 0.239862,-1.68002 l 3.135807,-2.35225 q 0.959941,-0.72008 1.68002,0.23986 l 2.544278,3.39179 21.374682,-16.03376 -2.592284,-3.45579 q -0.720079,-0.95994 0.239862,-1.68002 l 3.327795,-2.49627 q 0.959941,-0.72008 1.68002,0.23986 l 6.336697,8.44748 q 0.67207,0.89595 -0.14385,1.80801 z"
       id="path1082" />
    <path
       d="m 119.8952,505.51993 -14.82828,13.65824 q -2.76559,2.54737 -3.35089,4.39167 -0.5853,1.8443 1.20328,3.78609 1.78858,1.9418 4.29256,3.00713 0.83156,0.43046 0.39645,1.37507 l -1.73116,3.55233 q -0.12233,0.22144 -0.47538,0.54664 -0.29422,0.271 -1.18926,0.008 -4.01379,-1.52365 -7.590952,-5.40725 -4.823746,-5.23697 -3.634579,-9.37773 0.681283,-2.80283 2.166272,-4.49694 2.019213,-2.29494 4.490593,-4.57132 l 14.181016,-13.06205 -3.08937,-3.35402 q -0.81299,-0.88263 0.0696,-1.69562 l 3.0598,-2.81837 q 0.88264,-0.81299 1.69563,0.0696 l 3.08936,3.35402 7.94373,-7.31692 q 0.88263,-0.81299 1.69562,0.0696 l 4.44435,4.82507 q 0.81299,0.88264 -0.0696,1.69563 l -7.94372,7.31692 5.47413,5.94308 q 0.81299,0.88263 -0.0696,1.69562 l -3.0598,2.81837 q -0.88264,0.81299 -1.69563,-0.0696 z"
       id="path1084" />
    <path
       d="m 125.96263,519.11005 q 3.51066,-3.94381 8.8986,-3.86024 5.38793,0.0836 10.0488,4.23254 4.66087,4.14896 7.10944,8.25648 0.6238,0.9837 -0.12089,1.82027 l -5.63833,6.334 q -0.79788,0.89632 -1.6942,0.0984 l -3.46578,-3.08513 q -0.95607,-0.85107 0.0211,-1.58782 l 3.01156,-2.78153 q -0.94158,-2.55183 -3.09275,-4.46673 -4.78038,-4.25535 -7.75912,-0.90908 -1.54256,1.73288 -0.8932,4.1317 0.64936,2.39882 2.27518,5.02422 1.679,2.56564 3.14524,5.37031 1.57919,2.7981 1.37748,6.15299 -0.14851,3.29514 -2.8081,6.28288 -4.04258,4.54136 -9.49683,4.29165 -5.40106,-0.30947 -11.13751,-5.41588 -4.00357,-3.56386 -7.36159,-8.69515 -0.56404,-0.93051 0.23384,-1.82683 l 5.63833,-6.334 q 0.79788,-0.89632 1.6942,-0.0984 l 3.46577,3.08513 q 0.89632,0.79788 0.0387,1.64101 l -2.94524,2.94767 q 0.54954,2.63127 3.53728,5.29086 5.31817,4.73407 8.66926,0.96953 1.70214,-1.91216 1.10597,-4.37073 -0.48323,-2.46514 -2.16223,-5.03078 -1.61926,-2.51245 -3.19188,-5.19761 -1.51943,-2.74491 -1.42411,-5.98029 0.20827,-3.24195 2.92105,-6.28944 z"
       id="path1086" />
    <path
       d="m 162.98159,536.7529 -9.29195,29.59625 20.6958,-15.03162 -3.34879,-2.33067 q -0.98494,-0.68549 -0.29945,-1.67043 l 2.37638,-3.41445 q 0.68549,-0.98494 1.67042,-0.29944 l 9.58673,6.67212 q 0.78794,0.54839 0.7307,1.19082 -0.0572,0.64244 -0.33144,1.03641 -0.2285,0.32832 -0.58832,0.56523 l -31.83874,21.79917 q -0.90244,0.73647 -1.95304,0.005 l -5.64697,-3.93015 q -0.91928,-0.63979 -0.67346,-1.83326 l 9.23832,-32.46015 -3.28312,-2.28498 q -0.98494,-0.68549 -0.29945,-1.67043 l 2.37637,-3.41444 q 0.6855,-0.98494 1.67043,-0.29945 l 8.60179,5.98663 q 0.98493,0.68549 0.60779,1.78756 z"
       id="path1088" />
    <path
       d="m 181.98402,586.62 4.40606,2.44709 q 1.04906,0.58264 0.46643,1.6317 l -1.90329,3.42694 q -0.58264,1.04906 -1.6317,0.46642 l -16.64513,-9.24454 q -1.04906,-0.58263 -0.46642,-1.6317 l 1.90329,-3.42693 q 0.58264,-1.04907 1.6317,-0.46643 0,0 4.40606,2.44708 l 12.97342,-23.35912 -3.77662,-2.0975 q -1.04906,-0.58264 -0.46642,-1.6317 l 2.01981,-3.63675 q 0.58264,-1.04906 1.6317,-0.46642 l 10.56056,5.86523 q 1.04907,0.58264 0.46643,1.6317 z m 11.15307,-40.01838 q -0.55196,-2.13676 0.65216,-4.30483 1.20412,-2.16806 3.30978,-2.8288 2.21445,-0.69183 4.45245,0.55113 2.30794,1.2818 2.82105,3.4885 0.6219,2.1756 -0.58222,4.34366 -1.20412,2.16807 -3.37972,2.78997 -2.1756,0.62189 -4.48354,-0.65991 -2.238,-1.24296 -2.78996,-3.37972 z"
       id="path1090" />
    <path
       d="m 224.61046,549.42981 -21.92141,47.32988 4.57329,2.11818 q 1.08887,0.50432 0.58455,1.5932 l -1.64747,3.557 q -0.50433,1.08888 -1.59321,0.58455 l -17.27685,-8.00199 q -1.08888,-0.50432 -0.58455,-1.5932 l 1.64746,-3.557 q 0.50433,-1.08888 1.59321,-0.58455 l 4.57328,2.11817 19.66875,-42.46622 -3.91996,-1.81558 q -1.08888,-0.50433 -0.58455,-1.59321 l 1.74833,-3.77477 q 0.50433,-1.08888 1.59321,-0.58455 l 10.96137,5.07689 q 1.08887,0.50433 0.58455,1.5932 z"
       id="path1092" />
    <path
       d="m 242.47052,556.54353 -18.39008,48.81056 4.71635,1.77695 q 1.12295,0.42309 0.69986,1.54603 l -1.38207,3.66828 q -0.42309,1.12294 -1.54603,0.69986 l -17.81735,-6.71295 q -1.12294,-0.42308 -0.69986,-1.54603 l 1.38208,-3.66827 q 0.42308,-1.12295 1.54602,-0.69986 l 4.71636,1.77695 16.50031,-43.79474 -4.04259,-1.52311 q -1.12295,-0.42308 -0.69986,-1.54603 l 1.46669,-3.89286 q 0.42309,-1.12294 1.54603,-0.69986 l 11.30428,4.25905 q 1.12295,0.42309 0.69986,1.54603 z"
       id="path1094" />
    <path
       d="m 248.57323,620.54533 q -9.19474,-2.46722 -12.0911,-8.95967 -2.79837,-6.54898 -0.43481,-15.35738 2.38429,-8.88568 8.498,-13.45743 6.1137,-4.57176 14.69031,-2.27041 4.24967,1.14032 6.82768,3.5715 2.67601,2.37465 3.57295,5.51438 1.68083,6.08345 -0.1644,12.96019 -0.87078,3.2452 -1.26278,3.47134 -0.392,0.22613 -1.24194,-0.002 l -22.71641,-6.09548 q -1.10644,5.66686 0.38225,9.37952 1.58668,3.65612 7.38168,5.21109 4.24967,1.14032 9.2702,0.33389 1.22686,-0.2506 1.37947,1.0328 l 0.51435,3.94819 q 0.13754,1.03087 -1.11006,1.35874 -5.84599,1.41323 -13.49539,-0.63934 z m -2.78826,-26.34263 16.07148,4.31245 q 2.74615,-9.61687 -4.98052,-11.69017 -4.55874,-1.22324 -7.27826,1.19457 -2.62152,2.36128 -3.8127,6.18315 z"
       id="path1096" />
    <path
       d="m 285.21051,626.45865 0.28489,-3.90964 q 0.0872,-1.19682 1.28404,-1.10961 l 4.149,0.30233 3.02331,-41.48999 -4.14899,-0.30233 q -1.19683,-0.0872 -1.10962,-1.28404 l 0.2907,-3.98942 q 0.0872,-1.19683 1.28404,-1.10962 10.24781,0.26547 17.02983,0.75967 20.74499,1.51165 19.66357,16.35231 -0.37791,5.18625 -3.30163,8.9838 -2.91791,3.71777 -7.45744,5.4725 l 7.99801,19.03159 4.94689,0.36047 q 1.19682,0.0872 1.10961,1.28404 l -0.28489,3.90963 q -0.0872,1.19683 -1.28404,1.10962 l -10.53207,-0.76746 q -1.19683,-0.0872 -1.67976,-1.16516 l -9.28725,-22.25381 -1.59577,-0.11628 q -2.55323,-0.18605 -4.5305,-0.57076 l -1.1977,16.43642 5.02668,0.36628 q 1.19682,0.0872 1.10961,1.28404 l -0.28489,3.90963 q -0.0872,1.19683 -1.28403,1.10962 l -18.11198,-1.31979 q -1.19683,-0.0872 -1.10962,-1.28404 z m 17.69499,-45.7951 -1.40119,19.22901 q 0.6325,0.1263 1.82932,0.21352 6.46287,0.47094 10.2394,-1.82066 3.77653,-2.2916 4.14863,-7.39806 0.6628,-9.09588 -11.94377,-10.01451 z"
       id="path1098" />
    <path
       d="m 352.37057,630.20966 q -9.4994,0.62594 -14.33265,-4.58756 -4.75867,-5.29858 -5.35831,-14.39885 -0.6049,-9.18009 3.71039,-15.47745 4.31529,-6.29735 13.17608,-6.88121 4.39048,-0.2893 7.61418,1.18193 3.29828,1.38614 5.15874,4.06962 3.55076,5.21783 4.01889,12.32242 0.22092,3.35273 -0.0774,3.69308 -0.29826,0.34035 -1.17636,0.39821 l -23.46911,1.54643 q 0.77786,5.72123 3.38306,8.75651 2.67977,2.95019 8.66679,2.55569 4.39048,-0.28929 8.88368,-2.66987 1.08076,-0.63243 1.63862,0.53341 l 1.75867,3.5721 q 0.46225,0.93163 -0.61325,1.64388 -5.07921,3.22093 -12.98207,3.74166 z m -11.12473,-24.04057 16.60399,-1.09407 q -0.49784,-9.98889 -8.48053,-9.46289 -4.70979,0.31034 -6.50558,3.47526 -1.72123,3.07983 -1.61788,7.0817 z"
       id="path1100" />
    <path
       d="m 385.40764,618.7832 4.97343,-0.81649 q 1.18414,-0.1944 1.37855,0.98975 l 0.63505,3.86822 q 0.1944,1.18415 -0.98975,1.37855 l -18.78849,3.08452 q -1.18415,0.1944 -1.37855,-0.98975 l -0.63505,-3.86822 q -0.1944,-1.18414 0.98975,-1.37855 0,0 4.97342,-0.81649 l -4.3287,-26.36704 -4.26293,0.69985 q -1.18415,0.1944 -1.37855,-0.98974 l -0.67393,-4.10505 q -0.1944,-1.18415 0.98975,-1.37855 l 11.92042,-1.95699 q 1.18415,-0.1944 1.37856,0.98975 z m -16.09701,-38.29815 q -1.75913,-1.33262 -2.16089,-3.77986 -0.40177,-2.44724 0.83895,-4.27235 1.3067,-1.91701 3.83288,-2.33173 2.60513,-0.42769 4.37722,0.98387 1.83806,1.31967 2.23983,3.76691 0.40176,2.44724 -0.9179,4.2853 -1.31966,1.83807 -3.92479,2.26576 -2.52618,0.41472 -4.2853,-0.9179 z"
       id="path1102" />
    <path
       d="m 386.25859,591.12092 -1.14595,-4.08221 q -0.32432,-1.15534 0.83102,-1.47966 l 10.47509,-2.94055 q 1.0013,-0.28109 1.55669,0.80939 l 1.94726,4.27272 q 2.49705,-7.68072 10.50742,-9.92938 11.93852,-3.35136 15.61421,9.7425 l 5.55678,19.79485 4.46732,-1.25406 q 1.15534,-0.32433 1.47966,0.83101 l 1.05947,3.77412 q 0.32432,1.15534 -0.83102,1.47967 l -16.79095,4.71353 q -1.15535,0.32432 -1.47967,-0.83102 l -1.05946,-3.77411 q -0.32433,-1.15535 0.83101,-1.47967 l 3.69709,-1.03784 -4.47569,-15.94371 q -1.36217,-4.85243 -3.22156,-6.74014 -1.85939,-1.88772 -5.71053,-0.80663 -3.85114,1.08108 -5.74424,4.10528 -1.8931,3.0242 -1.07147,5.95106 l 4.97299,17.71523 4.77541,-1.34054 q 1.15534,-0.32433 1.47967,0.83101 l 1.05946,3.77412 q 0.32433,1.15534 -0.83102,1.47967 l -17.48416,4.90812 q -1.15534,0.32433 -1.47966,-0.83101 l -1.05947,-3.77412 q -0.32432,-1.15534 0.83102,-1.47967 l 4.0822,-1.14595 -7.22164,-25.72559 -4.15923,1.16757 q -1.15534,0.32433 -1.45805,-0.75399 z"
       id="path1104" />
    <path
       d="m 473.68035,589.41385 3.13768,-1.41017 q 1.09453,-0.49192 1.58645,0.60262 l 1.60695,3.57549 q 0.49192,1.09454 -0.60262,1.58646 l -8.24552,3.7058 q -0.9486,0.42633 -1.58646,-0.60261 l -2.51864,-4.04283 q -0.90109,7.94788 -9.07364,11.62089 -7.15099,3.21388 -13.01883,0.50088 -5.90064,-2.78597 -10.13116,-12.199 -4.26331,-9.486 -2.04223,-16.44839 2.29405,-6.99518 9.37207,-10.17626 3.21064,-1.44297 6.2491,-1.31751 3.00567,0.0525 4.92746,1.20606 l -6.98527,-15.54244 -3.86737,1.73812 q -1.09454,0.49192 -1.58646,-0.60262 l -1.73812,-3.86737 q -0.49192,-1.09454 0.60262,-1.58646 l 10.94538,-4.9192 q 1.09454,-0.49192 1.58646,0.60261 z m -11.74718,-4.28063 -5.77187,-12.84259 q -1.60449,-1.03305 -4.56998,-1.1913 -2.89253,-0.19105 -5.30051,0.89118 -9.04819,4.06654 -3.53868,16.32537 4.23052,9.41303 9.36623,9.91154 2.21039,0.2345 5.27509,-1.14288 3.06471,-1.37738 4.602,-4.78724 1.61025,-3.44265 -0.0623,-7.16408 z"
       id="path1106" />
    <path
       d="m 501.12949,581.63906 q -8.07918,5.0356 -14.80095,2.72073 -6.69619,-2.42508 -11.52021,-10.1648 -4.86634,-7.8076 -4.0344,-15.39617 0.83195,-7.58856 8.36799,-12.28563 3.73407,-2.32738 7.2705,-2.55197 3.56201,-0.33479 6.46881,1.1528 5.59318,2.92404 9.3593,8.96645 1.77727,2.85147 1.67497,3.2923 -0.10231,0.44084 -0.84912,0.90631 l -19.96033,12.4409 q 3.38622,4.67666 7.11562,6.12287 3.75499,1.33601 8.8469,-1.83769 3.73408,-2.32738 6.57161,-6.54691 0.65428,-1.06767 1.69638,-0.30318 l 3.23648,2.31904 q 0.84726,0.60313 0.23529,1.73869 -2.95751,5.23698 -9.67884,9.42626 z m -21.15482,-15.94311 14.12159,-8.80172 q -5.15371,-8.57116 -11.94294,-4.33957 -4.00564,2.49665 -4.09494,6.13445 -0.0637,3.5276 1.91629,7.00684 z"
       id="path1108" />
    <path
       d="m 532.95412,558.72821 q -7.40158,5.98724 -14.35627,4.51309 -6.9428,-1.58666 -12.67847,-8.67725 -5.78599,-7.15278 -5.88977,-14.78611 -0.10378,-7.63332 6.80022,-13.21806 3.42089,-2.76721 6.90319,-3.42325 3.49419,-0.76855 6.5613,0.35181 5.90921,2.21696 10.38706,7.75259 2.11314,2.61232 2.0656,3.06237 -0.0475,0.45004 -0.73172,1.00348 l -18.28626,14.792 q 3.93353,4.22671 7.81199,5.20524 3.89034,0.86603 8.55521,-2.90744 3.42089,-2.76721 5.72025,-7.30251 0.51858,-1.13977 1.64647,-0.50868 l 3.49616,1.90517 q 0.91474,0.49482 0.44647,1.69678 -2.29381,5.55979 -8.45143,10.54077 z m -22.94827,-13.23199 12.93721,-10.46509 q -6.16472,-7.87539 -12.38453,-2.8441 -3.66969,2.96846 -3.31276,6.58982 0.36883,3.50884 2.76008,6.71937 z"
       id="path1110" />
    <path
       d="m 534.01093,512.31119 q -1.34027,-3.20831 -0.82012,-6.94845 0.46289,-3.79601 2.97726,-6.37243 2.51438,-2.57641 4.31341,-3.5035 0.89951,-0.46355 1.70107,0.3187 l 7.72924,7.54313 q 0.85881,0.83812 0.0207,1.69693 l -3.63187,3.72149 q -0.83813,0.8588 -1.64106,-0.0366 l -3.09721,-3.46976 q -0.33663,0.23039 -1.00713,0.91744 -2.57025,2.63367 -2.07086,6.47453 0.44214,3.78498 4.04912,7.30511 l 10.70644,10.44862 6.14625,-6.2979 q 0.83812,-0.85881 1.69693,-0.0207 l 2.80543,2.73787 q 0.8588,0.83813 0.0207,1.69693 l -15.36563,15.74477 q -0.83812,0.8588 -1.69693,0.0207 l -2.80543,-2.73788 q -0.85881,-0.83812 -0.0207,-1.69693 l 2.96138,-3.03444 -19.12273,-18.66226 -3.01725,3.0917 q -0.83813,0.85881 -1.69693,0.0207 l -2.9772,-2.9055 q -0.8588,-0.83812 -0.0207,-1.69693 l 7.3755,-7.55748 q 0.78225,-0.80155 1.80868,-0.13519 z"
       id="path1112" />
    <path
       d="m 552.432,466.70645 13.67289,9.48377 7.24961,-10.45187 -3.53487,-2.06241 q -1.03162,-0.61819 -0.34769,-1.60421 l 2.55332,-3.68116 q 0.68392,-0.98603 1.66995,-0.3021 l 11.6351,8.07032 q 0.98602,0.68393 0.3021,1.66995 l -2.55333,3.68116 q -0.68392,0.98603 -1.62435,0.23637 l -3.0185,-2.38577 -7.20401,10.38613 15.38199,10.66924 4.69629,-6.7707 q 0.68393,-0.98603 1.66995,-0.3021 l 3.22102,2.23415 q 0.98602,0.68393 0.3021,1.66995 l -12.21948,17.61699 q -0.68392,0.98602 -1.66995,0.3021 l -3.22101,-2.23416 q -0.98603,-0.68393 -0.3021,-1.66995 l 2.41654,-3.48396 -34.11648,-23.66382 -2.41653,3.48395 q -0.68393,0.98603 -1.66996,0.3021 l -3.35248,-2.32534 q -0.98603,-0.68393 -0.3021,-1.66996 l 20.51777,-29.58075 q 0.68392,-0.98603 1.66995,-0.3021 l 8.80849,6.10973 q 0.98603,0.68393 0.3021,1.66995 l -2.55332,3.68117 q -0.68393,0.98602 -1.62436,0.23636 l -4.35333,-3.409 z"
       id="path1114" />
    <path
       d="m 595.27431,442.01878 -2.48313,-1.29386 q -5.0372,-2.62468 -7.79294,-0.45223 -1.26995,1.05225 -2.60077,3.60632 -2.51378,4.82437 1.50926,8.18353 0.95329,0.76735 0.50968,1.61871 l -2.36591,4.54058 q -0.59147,1.13515 -1.58174,0.43874 -5.03123,-2.9824 -5.41021,-8.14135 -0.37898,-5.15895 2.76325,-11.18941 6.61715,-12.69943 18.25239,-6.63679 l 18.65895,9.72241 1.58959,-3.0507 q 0.55451,-1.0642 1.61871,-0.50969 l 3.47638,1.8114 q 1.0642,0.55451 0.50969,1.61871 l -4.36215,8.37169 q -0.48057,0.92231 -1.6187,0.50969 l -3.52232,-1.20387 q 3.18287,6.52973 -0.5878,13.76628 -2.36591,4.54058 -6.25978,6.30041 -3.96481,1.72287 -9.21486,-1.01271 -6.88181,-3.58583 -6.44154,-10.66333 0.27747,-5.89941 3.5026,-12.60834 0.70238,-1.34799 1.85135,-3.72619 z m 10.43214,5.25534 -5.46289,-2.84649 q -3.54887,6.81087 -3.72363,8.7044 -0.17476,1.89353 -0.16469,3.43233 0.0231,2.89874 3.21574,4.56227 4.89531,2.55074 7.81573,-3.05403 1.9223,-3.68923 1.29164,-6.63389 -0.70161,-2.98164 -2.9719,-4.16459 z"
       id="path1116" />
    <path
       d="m 598.43049,412.50926 q -2.51888,-2.39684 -3.54909,-6.02973 -1.10511,-3.66097 0.1587,-7.03184 1.26382,-3.37087 2.53712,-4.94399 0.63665,-0.78656 1.68537,-0.39337 l 10.11261,3.79146 q 1.12362,0.42127 0.70235,1.54489 l -1.82551,4.86904 q -0.42128,1.12362 -1.51681,0.62744 l -4.23234,-1.92856 q -0.21533,0.34646 -0.55235,1.24536 -1.29191,3.44578 0.71206,6.76025 1.92906,3.28638 6.64828,5.05573 l 14.00784,5.25186 3.08933,-8.2399 q 0.42127,-1.12362 1.54489,-0.70235 l 3.67051,1.37616 q 1.12362,0.42127 0.70235,1.54489 l -7.72333,20.59976 q -0.42128,1.12363 -1.5449,0.70235 l -3.6705,-1.37615 q -1.12362,-0.42128 -0.70235,-1.5449 l 1.48849,-3.97014 -25.01934,-9.38033 -1.51658,4.04504 q -0.42128,1.12363 -1.5449,0.70235 l -3.89523,-1.46041 q -1.12362,-0.42127 -0.70235,-1.54489 l 3.7072,-9.88789 q 0.39319,-1.04872 1.60107,-0.85217 z"
       id="path1118" />
    <path
       d="m 604.34615,397.0474 -4.08516,-0.78553 q -1.17841,-0.22659 -0.95182,-1.405 l 2.06955,-10.76283 q 0.19638,-1.02129 1.405,-0.95182 l 4.67738,0.24767 q -5.81359,-5.35408 -4.24254,-13.52441 1.57104,-8.17032 8.9829,-9.43349 -6.09762,-5.57163 -4.54168,-13.66339 2.34146,-12.17693 15.6968,-9.60888 l 20.19013,3.8823 0.86105,-4.47797 q 0.2266,-1.17841 1.40501,-0.95182 l 3.84948,0.7402 q 1.17841,0.2266 0.95182,1.40501 l -3.32336,17.28338 q -0.2266,1.17841 -1.40501,0.95182 l -3.84948,-0.7402 q -1.17841,-0.2266 -0.95182,-1.40501 l 0.77042,-4.0066 -16.26209,-3.12698 q -4.94934,-0.95169 -7.4693,-0.1328 -2.51996,0.81889 -3.26017,4.66837 -0.72509,3.77092 0.87941,6.44195 1.6045,2.67102 4.35413,3.19974 l 18.93316,3.64059 0.7251,-3.77092 q 0.22659,-1.17841 1.405,-0.95182 l 3.84948,0.74021 q 1.17841,0.22659 0.95182,1.405 l -3.09677,16.10497 q -0.22659,1.17841 -1.405,0.95182 l -3.84948,-0.7402 q -1.17842,-0.2266 -0.95182,-1.40501 l 0.67977,-3.53524 -16.26209,-3.12698 q -4.94933,-0.95169 -7.46929,-0.13279 -2.51996,0.81889 -3.27527,4.74693 -0.74021,3.84948 1.17854,6.58093 1.85529,2.63778 4.91916,3.22692 l 18.06899,3.47443 0.92148,-4.79221 q 0.22659,-1.17841 1.405,-0.95182 l 3.84948,0.7402 q 1.17842,0.2266 0.95182,1.40501 l -3.414,17.75474 q -0.22659,1.17842 -1.405,0.95182 l -3.84948,-0.7402 q -1.17841,-0.22659 -0.95182,-1.40501 l 0.80063,-4.16372 -26.23932,-5.04547 -0.81573,4.24229 q -0.2266,1.17841 -1.40501,0.95182 z"
       id="path1120" />
  </g>
  <!--The foreground part of the reindeer -->
  <g
     transform="matrix(0.12319,0,0,-0.12319,-212.94614,824.05387)"
     fill="#000000"
     stroke="none"
     style="display:inline">
    <path
       d="m 3640,5808 c -10,-24 -23,-77 -30,-119 -13,-88 2,-188 47,-313 59,-164 201,-817 210,-967 5,-73 2,-99 -21,-179 -15,-52 -34,-106 -42,-122 -14,-27 -17,-28 -90,-28 -90,0 -122,14 -162,73 -16,23 -40,51 -52,62 -66,59 -125,247 -136,435 -8,118 -1,140 72,236 70,91 104,199 67,211 -7,3 -18,-11 -26,-29 -19,-45 -67,-92 -80,-79 -6,6 -12,48 -15,93 -5,101 16,206 58,296 32,68 29,89 -8,78 -25,-8 -75,-85 -96,-147 -46,-135 -71,-352 -70,-594 1,-222 12,-279 79,-427 46,-98 55,-151 34,-189 -9,-17 -19,-20 -62,-18 -58,3 -64,-4 -52,-68 13,-73 52,-85 138,-40 28,15 49,18 81,14 59,-8 96,-27 96,-47 0,-16 -61,-77 -128,-127 -16,-12 -36,-37 -45,-55 -9,-18 -26,-43 -39,-55 -42,-39 -302,-205 -364,-233 -67,-31 -104,-69 -104,-109 0,-27 30,-145 48,-192 17,-44 68,-79 115,-79 123,0 489,-52 538,-76 29,-14 78,-87 97,-143 10,-29 7,-51 -24,-167 -19,-74 -49,-163 -66,-200 -31,-66 -30,-79 7,-86 19,-3 20,-11 18,-155 l -1,-152 26,2 c 26,2 27,-1 30,-50 3,-52 14,-68 26,-38 9,25 36,18 36,-10 0,-29 8,-31 36,-10 10,8 26,15 35,15 8,0 30,11 49,25 36,27 56,24 40,-5 -18,-33 11,-36 36,-4 l 24,29 28,-34 28,-33 54,18 c 30,10 69,28 86,41 23,16 34,19 42,11 9,-9 18,-9 34,0 13,6 32,12 43,14 13,2 30,23 48,57 32,64 36,152 13,261 -21,98 2,524 35,651 5,20 9,79 9,130 0,91 9,154 45,326 9,45 15,94 13,110 -3,24 -7,28 -31,25 -33,-4 -57,13 -57,39 0,10 23,44 50,75 50,57 67,92 57,117 -4,11 -27,13 -104,9 -79,-4 -101,-2 -111,10 -20,24 4,35 99,46 75,8 97,15 174,58 154,86 314,242 385,376 37,69 171,250 234,316 48,51 121,107 185,142 53,29 62,57 18,52 -16,-2 -35,2 -43,9 -18,15 -18,74 2,131 9,27 14,70 12,104 -3,51 -6,59 -24,62 -32,5 -48,-25 -83,-153 -18,-66 -39,-130 -48,-143 -8,-13 -57,-76 -110,-139 -52,-64 -134,-175 -181,-247 -46,-72 -96,-148 -110,-168 -50,-76 -179,-188 -258,-224 -161,-73 -234,-78 -234,-16 0,32 42,180 63,221 72,139 129,219 256,358 75,84 142,163 148,175 35,72 89,206 117,294 40,124 70,167 218,320 65,67 118,126 118,132 0,6 -9,16 -19,22 -45,24 -67,12 -186,-96 -155,-142 -154,-140 -249,-404 -23,-63 -63,-155 -90,-203 -40,-75 -59,-97 -122,-148 -63,-49 -79,-57 -94,-49 -32,17 -38,41 -29,110 13,107 33,532 26,570 -4,19 -11,62 -16,95 -30,187 -32,193 -62,156 -21,-26 -20,-16 -23,-356 -1,-160 -6,-251 -20,-335 -18,-112 -18,-163 0,-325 6,-57 -17,-127 -91,-280 -41,-85 -57,-133 -87,-265 -17,-71 -56,-100 -134,-100 -43,0 -55,4 -64,20 -15,28 -4,100 27,177 32,82 33,225 4,363 -41,190 -50,226 -60,254 -13,31 -83,319 -102,411 -18,92 -14,205 9,257 15,35 36,56 99,101 88,61 105,90 73,130 l -18,22 -49,-34 c -26,-19 -70,-50 -98,-69 -27,-19 -58,-47 -68,-63 -40,-62 -49,-27 -40,154 l 6,137 h -27 c -22,0 -30,-8 -46,-42 z" />
  </g>
</svg>
