<svg xmlns="http://www.w3.org/2000/svg" version="1.0" width="750.000000pt" height="700.000000pt" viewBox="76 48 505.000000 525.000000" preserveAspectRatio="xMidYMid meet">

<!-- The circle -->
  <path
     d="m 462.83868,93.3445 c 31.22428,19.4045 58.11022,45.87727 78.50339,76.42275 33.29015,49.71388 47.73656,111.24756 40.15183,170.59729 -5.93203,52.87172 -28.84852,103.55953 -65.72444,142.0439 -19.24219,20.49646 -41.74552,38.44009 -66.68362,51.5289 -21.64744,11.746 -45.36078,19.84719 -69.53157,24.43639 3.37919,-9.47352 5.6369,-18.91752 10.81636,-27.68276 7.49619,-2.47905 14.8448,-5.34179 22.19343,-8.17498 32.67039,-12.86747 62.80271,-32.16868 86.398,-58.34631 7.03873,-8.35205 13.7676,-16.95496 19.5668,-26.2219 23.41822,-34.76578 37.56949,-75.47834 39.28122,-117.45995 1.56416,-38.57289 -6.78788,-77.7213 -23.84614,-112.35427 C 517.14178,173.41205 490.94939,143.82573 459.07583,122.19303 426.9957,100.1619 389.24915,86.394294 350.51394,82.616688 276.05377,76.256735 199.09979,107.40722 152.60278,166.44709 c -22.53283,28.0074 -38.3368,61.43037 -46.02482,96.52079 -15.774468,72.52708 7.46666,152.46183 59.23168,205.59917 22.03112,22.32624 48.62193,40.16659 77.5885,52.17818 21.80976,9.25219 44.37212,14.10701 67.73129,17.47144 4.14651,7.95363 7.96839,16.15811 12.6904,23.78712 -2.86272,0.2656 -5.76971,0.7378 -8.64717,0.81158 -18.9323,-0.90012 -37.70229,-3.91041 -55.92629,-9.16364 C 202.96595,538.24619 154.29975,501.85721 121.23094,454.09115 88.088342,406.38411 72.04827,347.35901 76.97686,289.42589 79.382138,262.05299 85.978188,234.76864 96.676489,209.44686 126.48417,139.17749 190.11323,84.59403 263.74704,64.90916 330.13552,46.345765 404.16774,57.412972 462.83868,93.3445 Z"
     fill="#309e2c"
     id="path2633"
     style="display:inline;stroke-width:1.47564" />

<!--The reindeer -->
<path
     d="m 332.82116,111.25862 c -1.06245,9.13412 -13.47249,16.54178 -12.38052,27.71228 -0.57549,10.77209 3.26113,20.31938 8.44059,29.52731 2.05112,3.23162 4.81054,5.68117 8.94229,4.82531 5.20898,-1.65272 8.18974,-8.18974 11.50991,-12.24772 5.57787,-6.97971 9.42925,-14.99236 14.72677,-22.16393 2.81843,-4.23504 6.64032,-8.7062 8.07168,-13.60527 1.34282,-4.58921 2.87747,-9.03084 4.86956,-13.36919 0.9149,-0.29513 1.82978,-0.59025 2.74467,-0.88537 0.92965,6.53703 1.37234,12.89697 -0.4722,19.33072 -1.54941,7.48142 -6.15336,12.35099 -9.39974,19.05034 -4.33835,8.16022 -7.06826,16.8074 -11.81979,24.76104 -3.74808,6.35996 -7.83558,11.89354 -9.63584,19.22742 -3.36443,11.31806 -1.21001,22.37051 3.24638,33.00978 3.5415,8.66193 -1.50515,18.93231 4.89908,25.88251 6.03532,-1.28379 10.07854,-5.17945 13.31017,-10.24087 4.76628,-7.6585 9.38498,-15.40554 14.50542,-22.84269 1.41659,-0.059 2.81844,-0.10337 4.23504,-0.16233 2.05113,5.00238 -0.63452,8.44059 -2.06587,13.10358 -2.11016,5.23847 -3.512,10.87537 -6.12386,15.86299 -4.53018,8.67669 -15.37604,13.45772 -19.1979,22.29673 -3.85141,7.90937 -7.37815,15.37604 -14.10701,21.30805 -6.24191,5.62215 -12.71991,11.02295 -19.05036,16.52704 0.0442,1.26903 0.0886,2.55283 0.13286,3.82187 -1.3133,0.72307 -2.64137,1.43135 -3.95468,2.15442 1.91832,-0.92964 3.85138,-1.78551 5.85824,-2.52333 9.7539,-5.50409 19.65537,-10.66878 29.17316,-16.65982 5.06142,-3.18737 9.37024,-7.24535 14.29883,-10.60976 4.94335,-3.33492 9.22267,-7.92413 12.10015,-13.14785 3.80711,-8.73571 5.71066,-18.53389 8.1307,-27.72704 3.48249,-14.16602 8.85377,-29.51255 9.65061,-44.09176 0.0737,-6.3747 0.14757,-12.77893 0.10323,-19.16839 0.16233,-7.86509 -4.64822,-13.97419 -4.39737,-22.04587 0.30989,-6.52228 0.95915,-13.41345 3.05456,-19.62585 2.81845,-5.78446 4.97286,-11.20002 11.49513,-13.6053 0.26562,8.02742 -3.7776,14.87435 -3.68906,22.79847 -0.14757,8.66193 1.46086,17.50093 5.2975,25.32176 7.86509,-5.65165 10.93441,-13.64956 16.96972,-20.90963 0.23609,-2.0659 0.45744,-4.13177 0.69355,-6.18289 0.72305,-0.67879 1.46087,-1.37234 2.16917,-2.06587 1.28378,3.82186 2.77418,7.05349 1.7855,11.18524 -2.81845,12.83797 -9.50303,22.82796 -14.93335,34.13127 -1.68221,3.08406 -0.059,5.45982 0.51647,8.58815 8.79475,-2.2577 17.78131,-1.96259 26.63507,-3.5415 5.79922,-2.08065 11.96735,-4.44164 17.23533,-7.64376 6.18289,-6.34519 11.48039,-13.67906 16.98448,-20.6145 1.12148,0.10323 2.22818,0.20657 3.34968,0.30987 -2.21345,7.37814 -5.78448,14.28407 -8.38157,21.54416 -3.76284,9.03084 -15.09567,14.88909 -23.78711,18.20924 -8.44059,3.4087 -19.22744,4.36785 -26.16288,10.46221 -6.99448,6.78787 -9.76864,18.07643 -12.54284,27.13679 -2.5971,10.22609 -7.08301,18.41583 -5.17944,29.32071 6.34519,-0.0296 12.08538,-2.34625 18.32729,-3.01027 9.10462,-1.03296 18.00265,-1.62321 26.84165,-4.24981 11.25905,-2.7004 24.25933,-7.43718 32.21295,-16.23191 4.76628,-4.94335 6.13861,-13.14784 9.66537,-18.37155 1.31331,-2.05114 4.19077,-2.52333 6.27142,-3.46775 -3.02505,6.56656 -4.8991,13.19212 -5.01713,20.46697 6.22715,-1.23953 11.93781,-3.4087 16.61554,-7.83558 5.69593,-4.22029 8.13072,-9.70962 14.97763,-11.46564 -0.73782,8.75049 -6.28617,14.25457 -12.69039,19.56683 -5.40081,4.98761 -12.23295,6.99448 -18.03217,11.43612 -7.82083,5.90251 -16.34996,10.16708 -25.72019,13.00027 -8.91279,3.14309 -17.73704,6.47801 -26.88593,8.91278 -8.86852,2.56759 -18.03217,2.84796 -27.01875,5.09092 -9.42925,1.9626 -17.73703,6.1091 -26.42847,10.06378 -6.69935,2.96602 -12.05587,7.79131 -18.46011,11.40662 -11.89355,7.8208 -23.6543,15.74492 -36.06433,22.76891 -7.00923,3.91043 -14.46115,8.02742 -20.3489,13.53151 -2.77418,2.39052 -3.52675,5.48933 -4.88432,8.75047 26.32518,9.22267 49.55156,21.01294 76.61458,26.50227 19.78815,2.64137 36.1086,-4.38261 54.5982,-9.7539 10.40319,-0.88538 19.93574,1.84454 29.6306,5.13519 9.97524,3.15783 20.86537,5.4303 30.82585,0.97391 11.65746,-3.5415 24.37738,-4.17604 36.35947,-2.08063 -2.24296,7.52568 -4.02847,15.50884 -7.14204,22.72466 -8.16023,16.91069 -17.73703,33.02455 -28.24351,48.5629 -3.55626,5.23847 -7.62898,9.78341 -11.61318,14.69724 -5.76971,7.45191 -13.32492,12.97077 -20.30464,19.68488 -6.34521,5.37128 -12.66088,10.94915 -19.46353,15.74494 -9.00131,5.57787 -17.67801,11.46561 -27.41715,15.71543 -12.73468,6.40423 -25.79397,9.57682 -39.22218,14.04798 -3.15784,0.97391 -4.39737,2.68564 -5.78445,5.56311 -5.45982,11.21476 -12.11492,24.14126 -12.80847,36.75789 -1.12146,0.0296 -2.22818,0.0296 -3.3349,0.0442 -1.19526,-4.72202 -2.58235,-9.26696 -4.4564,-13.76761 -3.18736,3.89566 -5.12042,7.45191 -6.84691,12.20344 -0.97391,0.0296 -1.93308,0.059 -2.907,0.0886 -1.22477,-5.26798 -2.4938,-10.46218 -2.89222,-15.86298 -0.75257,-0.38367 -1.5199,-0.75258 -2.27247,-1.13624 -1.46087,4.27931 -2.64137,8.5734 -3.61528,13.00028 -1.19526,-0.0739 -2.39053,-0.14756 -3.57101,-0.22134 -0.29513,-2.75943 -0.59027,-5.51886 -0.9149,-8.27827 -0.605,-2.22821 -1.19524,-4.4564 -1.82978,-6.66984 -0.59026,-0.19184 -1.18049,-0.38366 -1.7855,-0.56074 -0.39843,1.85929 -0.82635,3.71858 -1.2838,5.56312 -0.29513,2.00684 -0.59026,3.99895 -0.88537,6.0058 -1.15099,-0.29513 -2.28723,-0.59025 -3.42348,-0.87062 -0.70829,-3.80712 -1.71171,-7.52571 -2.24294,-11.36233 -1.01817,-2.28723 -2.33148,-4.13175 -3.98419,-6.00581 -0.17707,-1.59367 -0.3394,-3.18735 -0.51647,-4.79578 -2.24295,0.72305 -4.50067,1.44611 -6.7141,2.25771 -0.39844,-5.51885 -0.63453,-11.02293 -0.64928,-16.55655 -1.2838,-0.14755 -2.56759,-0.28036 -3.86614,-0.38366 -0.16233,-6.1091 -1.07721,-12.04112 -2.11015,-18.04691 -0.20659,3.3054 -1.35758,5.17944 -3.43821,5.62214 -0.67879,-1.99211 -1.26905,-3.99896 -1.756,-6.00582 -0.14757,-1.35757 -0.30988,-2.71515 -0.4722,-4.05797 l -4.14652,0.33939 c 0.28038,-11.4361 0.0296,-22.82795 -5.35652,-33.24588 -2.84797,-5.35652 -4.88434,-11.02294 -7.31912,-16.55654 -1.34283,-2.98077 -3.80712,-5.4303 -7.3191,-4.72199 -8.35205,0.79682 -15.81874,-1.44613 -23.78712,-3.55628 -16.88118,-6.3452 -34.19029,-4.117 -51.69124,-3.92517 -6.68459,-0.0737 -11.20001,5.26799 -17.58947,4.91385 -6.74362,0.059 -13.7676,-1.74125 -19.43401,-5.44509 -5.09092,-3.82187 -7.14204,-10.9934 -10.01951,-16.45323 -1.75601,-3.86615 -4.58921,-7.37815 -3.01029,-11.83455 2.33149,-8.58814 7.34863,-17.63373 16.82215,-19.49302 8.58816,-0.78208 17.01398,-2.05113 25.21848,-4.76628 14.66775,-4.84006 29.64537,-9.20791 43.95893,-15.03664 5.20897,-2.05113 8.04218,-6.44849 13.00028,-9.11938 3.70384,-2.361 7.80608,-3.15783 12.07065,-3.8514 -12.82322,-0.95915 -24.9086,2.13968 -37.56948,3.08408 -13.08883,0.63451 -25.64641,9.63584 -32.06538,20.79159 -1.80028,-0.11812 -3.60054,-0.25087 -5.38604,-0.39843 -0.4427,-3.39393 -0.2066,-5.85823 1.07719,-9.04559 0.73782,-3.09882 3.09883,-5.79922 0.19184,-8.49962 -9.34072,-8.67668 -21.61794,-7.89461 -31.38659,-13.70859 1.69697,-5.75493 7.14203,-7.03873 11.62794,-10.35889 -2.9365,-8.92755 -12.26246,-9.14889 -16.85167,-16.37946 -0.41317,-3.27589 1.04772,-3.55626 3.2759,-5.268 3.33492,0.0737 6.65508,-0.0147 9.98999,-0.11798 -0.14755,-9.08988 -0.35414,-18.35681 0.56074,-27.40241 0.73782,-3.48249 4.98762,-1.756 7.55522,-2.15442 0.87062,2.21344 1.72647,4.44165 2.62662,6.64032 3.21686,6.38948 5.56311,12.79369 9.87194,18.59292 4.02847,5.47458 8.08643,11.76075 13.35443,16.08434 6.56654,5.1647 14.49066,9.17839 22.84271,10.24084 7.85034,0.87063 15.7302,1.51989 23.52151,2.68564 8.08643,1.12148 15.40554,-1.04769 23.34443,1.65272 -0.13286,-6.80265 -0.10323,-13.22163 -2.40529,-19.74391 -3.12832,-8.69143 -6.77313,-18.46009 -12.77892,-25.60213 -5.29752,-6.07959 -10.35892,-12.2182 -16.60082,-17.3829 -5.28274,-4.94335 -11.25903,-9.72438 -15.58262,-15.5236 -2.84796,-7.30434 -4.02846,-15.16943 -1.1805,-22.69514 3.99896,3.82187 5.09092,8.54388 7.43716,13.38393 3.52675,3.9842 6.25666,8.45535 9.29645,12.77894 1.09197,0.0737 2.18393,0.14757 3.26114,0.22135 2.00685,-6.31569 1.37234,-13.01504 3.33492,-19.28646 3.49724,-8.73572 9.16365,-16.42372 18.23876,-19.86194 -3.82188,5.65165 -6.74363,11.96734 -9.50305,18.20924 -3.49723,9.68012 -3.08405,20.1128 -0.78208,30.01426 2.77419,5.85825 9.32596,9.47353 12.70516,15.11043 4.24979,7.03875 9.44401,13.17735 14.4759,19.71439 1.62319,1.7855 3.82188,4.69248 6.50751,4.42686 4.60396,0.50174 7.23058,-2.59709 10.56549,-5.12041 5.25323,-4.44164 11.0377,-7.20107 15.46458,-12.57234 5.12044,-5.91728 11.81978,-11.5099 15.70068,-18.29778 2.99553,-6.35996 3.99895,-13.81188 4.60396,-20.76208 -0.23604,-14.28417 -2.08058,-28.61252 -5.53356,-42.48342 -1.59366,-6.64032 -2.81844,-12.98552 -5.40078,-19.31595 -4.41213,-11.2738 -11.08197,-21.3671 -14.75629,-32.6999 -1.53464,-4.8253 -3.85139,-9.73916 -4.58919,-14.75629 -0.50173,-6.52227 -1.04771,-12.51331 3.12833,-18.03216 3.21687,-4.10225 5.97628,-8.64719 9.42926,-12.5576 4.39736,-3.65955 9.96048,-6.15336 15.50884,-7.4224 z"
     fill="#000000"
     id="path2635"
     style="display:inline;stroke-width:1.47564" />
</svg>
