 <svg version="1.0" xmlns="http://www.w3.org/2000/svg" width="700.000000pt" height="596.000000pt" viewBox="0 0 700.000000 596.000000" preserveAspectRatio="xMidYMid meet">
<metadata>
Created by potrace 1.12, written by Peter Selinger 2001-2015
</metadata>
<g transform="translate(0.000000,596.000000) scale(0.100000,-0.100000)" fill="#000000" stroke="none">
<path d="M3010 5570 c-157 -64 -564 -231 -905 -370 -341 -139 -630 -259 -643
-268 -13 -8 -29 -27 -37 -43 -8 -15 -122 -281 -254 -591 -131 -309 -309 -728
-395 -930 -86 -202 -156 -379 -156 -394 0 -23 167 -437 651 -1618 65 -159 126
-300 134 -312 8 -13 28 -30 43 -38 15 -7 438 -178 940 -380 691 -277 922 -366
954 -366 31 0 141 41 437 164 218 90 583 242 811 336 228 95 469 194 535 221
135 56 178 89 194 154 6 24 169 425 362 892 194 466 358 864 365 883 26 71 56
-15 -370 1085 -85 220 -199 516 -254 657 -55 142 -106 268 -115 281 -8 12 -30
30 -48 40 -19 9 -279 109 -579 222 -300 113 -597 226 -660 250 -596 228 -645
245 -684 244 -28 -1 -135 -40 -326 -119z m735 -364 c198 -76 461 -176 585
-223 124 -47 288 -109 365 -138 77 -29 187 -71 245 -93 57 -22 110 -48 117
-58 6 -11 72 -176 146 -369 75 -192 215 -555 312 -805 97 -250 184 -476 193
-502 l15 -46 -88 -216 -89 -215 -51 48 c-63 60 -105 81 -241 127 -214 70 -312
69 -602 -10 -294 -81 -380 -83 -659 -22 -250 55 -320 62 -428 42 -221 -40
-229 -40 -387 -17 -136 20 -337 65 -400 90 l-27 10 16 43 c10 27 17 76 17 128
1 72 -3 93 -24 135 -40 81 -118 115 -192 86 -13 -5 -85 -61 -161 -125 -99 -83
-150 -119 -180 -127 -195 -51 -262 -73 -412 -137 -156 -67 -191 -88 -237 -141
-44 -51 -58 -95 -65 -201 -5 -74 -3 -92 17 -138 43 -99 129 -149 275 -159 71
-5 83 -3 107 16 53 42 46 118 -16 158 -32 20 -33 23 -26 67 7 50 31 83 70 98
14 5 78 20 142 33 134 28 170 41 216 80 40 34 64 77 71 130 5 36 16 48 111
127 89 75 105 85 108 68 2 -11 -8 -45 -22 -76 -34 -73 -33 -94 7 -143 17 -22
40 -51 49 -65 17 -23 120 -64 245 -96 33 -8 49 -21 78 -60 54 -74 151 -156
228 -195 95 -48 169 -48 364 -1 187 45 249 51 345 32 208 -40 381 -158 486
-329 61 -99 107 -143 159 -153 21 -4 105 -2 188 5 156 13 226 7 282 -23 16 -8
64 -51 108 -95 l79 -81 -43 -107 c-24 -60 -47 -112 -51 -116 -4 -4 -28 3 -54
17 -71 38 -133 41 -305 17 -180 -25 -266 -26 -346 -6 -115 30 -140 49 -346
257 -189 191 -197 198 -236 198 -30 0 -46 -7 -67 -29 -35 -36 -66 -143 -66
-224 0 -119 67 -331 123 -389 30 -32 32 -39 53 -203 12 -93 25 -192 29 -220
l7 -50 -101 -42 c-56 -23 -101 -40 -101 -38 0 1 -9 54 -20 116 -22 131 -51
226 -86 286 -52 90 -167 160 -279 170 -45 5 -55 2 -83 -22 -45 -38 -66 -84
-124 -265 -46 -141 -84 -235 -110 -267 -10 -12 -44 -2 -156 47 l-43 19 22 43
c13 24 35 86 49 138 l27 95 67 33 c84 40 190 144 271 266 67 102 95 169 95
232 0 37 -5 51 -31 76 l-30 31 -102 -8 c-173 -14 -199 -12 -253 19 -27 16
-113 93 -191 172 -129 131 -144 144 -176 144 -26 0 -41 -7 -56 -26 -26 -33
-26 -51 0 -188 17 -90 20 -127 14 -196 -17 -177 -13 -210 29 -294 39 -76 94
-144 150 -182 l28 -20 -22 -80 c-12 -43 -33 -103 -46 -132 l-23 -52 -58 22
c-32 11 -244 97 -473 189 l-415 167 -28 69 c-16 37 -57 138 -91 223 -35 85
-179 438 -320 783 l-258 629 158 371 c86 205 230 543 319 752 89 209 181 426
205 482 42 99 44 102 89 121 25 11 363 149 751 307 388 158 734 300 770 316
42 18 78 27 100 25 19 -2 197 -65 395 -140z m1322 -3818 c-31 -78 -40 -97 -50
-101 -418 -176 -935 -386 -942 -383 -6 2 -17 53 -24 112 -8 60 -16 115 -18
122 -4 10 7 11 49 6 67 -8 199 9 336 42 95 23 162 45 507 170 129 46 150 51
142 32z m-1685 -321 c19 -19 40 -55 50 -87 17 -53 58 -273 58 -310 0 -13 -21
-26 -75 -48 l-75 -31 -88 35 c-48 20 -89 37 -91 40 -2 2 14 43 37 91 22 49 57
142 77 208 21 66 40 123 42 128 9 15 34 6 65 -26z"></path>
<path d="M2418 4395 c-52 -29 -64 -96 -27 -150 41 -61 69 -125 69 -160 0 -19
-5 -35 -11 -35 -6 0 -42 9 -80 21 -59 18 -74 19 -100 9 -40 -17 -59 -47 -59
-93 0 -54 31 -81 125 -108 42 -13 80 -29 83 -38 7 -18 -23 -137 -54 -216 -46
-112 -148 -288 -203 -348 -57 -61 -98 -87 -168 -106 l-43 -12 -122 88 c-68 48
-134 95 -146 103 l-22 15 20 90 c26 117 25 137 -5 173 -65 77 -152 36 -175
-81 -6 -34 -14 -66 -17 -70 -2 -4 -20 2 -38 13 -76 47 -93 52 -130 40 -44 -14
-65 -44 -65 -90 0 -52 18 -71 127 -135 159 -94 243 -147 243 -153 0 -10 -176
8 -260 28 -116 27 -136 26 -171 -9 -37 -37 -39 -88 -6 -127 50 -58 323 -100
596 -91 391 13 521 102 712 492 79 162 109 258 141 456 33 210 32 247 -17 343
-70 139 -133 187 -197 151z"></path>
<path d="M3158 4026 c-114 -41 -173 -141 -147 -249 16 -69 76 -127 205 -200
55 -32 110 -67 122 -80 72 -77 -8 -161 -121 -127 -58 17 -95 55 -113 117 -18
63 -45 84 -75 57 -17 -15 -19 -32 -19 -139 0 -108 2 -124 19 -140 19 -16 21
-16 51 5 29 21 32 21 77 6 26 -9 79 -16 119 -16 135 0 232 78 242 195 9 115
-38 176 -213 275 -155 87 -182 124 -130 175 63 64 195 -3 211 -106 5 -27 15
-46 31 -56 22 -14 25 -14 43 2 18 16 20 31 20 140 0 105 -2 124 -18 138 -24
22 -31 21 -56 -2 -21 -19 -22 -19 -76 -1 -64 23 -120 24 -172 6z"></path>
<path d="M3685 4000 c-17 -19 -18 -22 -2 -37 9 -9 31 -22 49 -27 l33 -11 3
-278 c2 -217 0 -278 -10 -281 -84 -22 -103 -43 -74 -75 18 -19 30 -21 171 -21
155 0 175 5 175 40 0 24 -32 50 -63 50 -22 0 -27 6 -32 33 -9 49 -1 190 11
194 6 2 55 -58 110 -134 139 -194 125 -183 237 -183 78 0 97 3 110 18 10 10
17 23 17 29 0 17 -33 40 -66 47 -37 8 -93 64 -169 171 -50 71 -54 81 -40 90
59 35 81 55 102 94 43 83 24 185 -47 244 -54 46 -115 57 -315 57 -170 0 -183
-1 -200 -20z m377 -119 c22 -24 28 -41 28 -75 0 -53 -30 -89 -88 -107 -68 -20
-72 -14 -72 104 0 57 3 107 8 111 4 4 27 6 52 3 33 -4 51 -13 72 -36z"></path>
<path d="M4515 4000 c-17 -19 -18 -22 -2 -37 9 -9 31 -22 49 -27 l33 -11 3
-278 c2 -217 0 -278 -10 -281 -84 -22 -103 -43 -74 -75 18 -19 30 -21 171 -21
155 0 175 5 175 40 0 24 -32 50 -63 50 -33 0 -39 28 -35 155 l3 90 52 3 c62 4
93 -10 93 -42 0 -23 28 -56 47 -56 5 0 17 8 26 18 14 15 17 41 17 134 0 103
-2 117 -21 134 -22 20 -45 13 -61 -19 -4 -9 -12 -25 -17 -34 -6 -14 -23 -19
-75 -21 l-67 -3 3 98 3 98 80 3 c95 3 122 -9 151 -63 22 -42 46 -54 69 -35 11
9 15 34 15 90 0 115 14 110 -292 110 -244 0 -256 -1 -273 -20z"></path>
</g>
</svg>