<svg xmlns="http://www.w3.org/2000/svg" version="1.0" width="750.000000pt" height="700.000000pt" viewBox="00 0 700.000000 700.000000" preserveAspectRatio="xMidYMid meet">
<!-- The circle -->
  <path
     d="m 462.42694,92.975937 c 31.33525,19.473463 58.31674,46.040313 78.78239,76.694363 33.40847,49.89057 47.90621,111.64294 40.29453,171.20361 -5.95311,53.05964 -28.95105,103.9276 -65.95804,142.54874 -19.31057,20.56931 -41.89388,38.57671 -66.92061,51.71205 -21.72439,11.78774 -45.522,19.91773 -69.77869,24.52324 3.3912,-9.50719 5.65693,-18.98477 10.8548,-27.78115 7.52282,-2.48787 14.89756,-5.36077 22.27231,-8.20404 32.7865,-12.9132 63.02591,-32.28301 86.70506,-58.55368 7.06375,-8.38174 13.81654,-17.01522 19.63635,-26.31509 23.50145,-34.88935 37.70301,-75.74661 39.42083,-117.87742 1.56971,-38.70999 -6.81201,-77.99753 -23.9309,-112.7536 C 516.92303,173.32805 490.63755,143.63657 458.65071,121.92699 426.45656,99.817566 388.57585,86.00103 349.70297,82.209997 274.97816,75.82744 197.75068,107.08864 151.08841,166.33833 c -22.61291,28.10695 -38.47305,61.64871 -46.1884,96.86384 -15.830534,72.78486 7.49321,153.0037 59.4422,206.3299 22.10942,22.40559 48.79474,40.30934 77.86426,52.36363 21.88728,9.28507 44.52982,14.15714 67.97201,17.53353 4.16126,7.9819 7.99672,16.21555 12.73551,23.87166 -2.87289,0.26655 -5.79022,0.74043 -8.67791,0.81447 -18.99959,-0.90332 -37.83628,-3.9243 -56.12505,-9.19621 C 201.63057,539.45885 152.79141,502.94055 119.60507,455.00472 86.344676,407.12812 70.247598,347.89324 75.193711,289.75421 77.607532,262.28403 84.22703,234.90271 94.963351,209.49094 124.87697,138.97182 188.73218,84.194366 262.62769,64.439534 329.25212,45.810163 403.54747,56.916704 462.42694,92.975937 Z"
     fill="#309e2c"
     id="path2633"
     style="display:inline;stroke-width:1.48088" />

<!--The text -->
  <g
     id="g7952"
     transform="matrix(1.480872,0,0,1.480872,-42.417145,-41.94631)">
    <path
       d="m 80.72,293.18 c 3.24,3.56 4.17,9.08 4.75,13.69 -2.18,0.54 -4.36,1.08 -6.56,1.57 -0.26,-1.09 -0.53,-2.17 -0.79,-3.26 1.21,-0.34 2.41,-0.68 3.61,-1.02 -0.49,-2.52 -0.43,-5.5 -2.51,-7.35 -1.59,-1.77 -4.56,-1.31 -5.47,0.91 -1.54,3.82 0.16,9.8 -2.54,13.5 -2.85,3.58 -8.62,3.7 -11.63,0.22 -3.9,-4.58 -5.12,-11.48 -5.04,-17.32 2.47,-0.39 4.94,-0.77 7.42,-1.08 0.31,1.34 0.61,2.67 0.91,4.01 -1.54,0.32 -3.09,0.57 -4.62,0.87 0.01,3.67 0.32,7.99 3.45,10.43 1.61,1.36 4.36,0.52 5.3,-1.23 1.76,-4.04 0,-9.91 2.44,-13.65 2.55,-3.41 8.5,-3.44 11.28,-0.29 z"
       fill="#000000"
       id="path2637" />
    <path
       d="m 444.41,292.3 c 0.89,0.06 1.77,0.17 2.65,0.32 -0.81,4.12 -1.98,8.21 -3.08,12.26 -0.92,-0.06 -1.84,-0.11 -2.75,-0.17 0.14,-1.16 0.28,-2.32 0.43,-3.48 -4.19,-0.68 -8.42,-2.09 -12.66,-2.22 -3.74,0.01 -4.61,6.91 -0.96,7.94 3.62,1.25 7.43,1.98 11.12,3.03 0.36,-0.91 0.71,-1.83 1.07,-2.74 0.9,0.09 1.8,0.2 2.7,0.31 -0.87,4.04 -2.22,7.89 -3.81,11.7 -0.88,-0.3 -1.75,-0.61 -2.63,-0.92 0.32,-1.05 0.64,-2.1 0.97,-3.15 -4.31,-1.07 -8.87,-3.21 -13.33,-3.16 -3.14,1.4 -4.49,6.96 -1.18,8.97 3.4,1.7 7.21,2.64 10.77,3.99 0.56,-1.25 1.13,-2.49 1.7,-3.73 0.85,0.1 1.7,0.2 2.55,0.3 -0.97,4.46 -2.95,8.45 -4.88,12.56 -0.86,-0.37 -1.71,-0.74 -2.56,-1.11 0.39,-1.03 0.78,-2.05 1.17,-3.08 -4.56,-1.74 -9.1,-3.51 -13.69,-5.18 -1.52,1.42 -1.53,3.21 -3.97,2 0.02,-2.33 1.47,-4.67 2.29,-6.82 0.68,-0.04 1.36,-0.09 2.04,-0.14 -0.26,-5.1 0.88,-9.93 4.87,-13.39 -0.33,-3.22 -0.43,-6.21 1.02,-9.19 0.9,-2.33 3.09,-3.88 5.64,-3.64 4.43,0.52 8.8,1.58 13.2,2.29 0.39,-1.2 0.83,-2.38 1.31,-3.55 z"
       fill="#000000"
       id="path2639" />
    <path
       d="m 90.25,310.15 c 1.24,2.28 1.96,4.7 2.74,7.17 -3.58,1.38 -7.18,2.7 -10.83,3.89 2.66,2.53 4.92,5.15 5.66,8.87 0.57,2.08 -0.47,4.23 -2.38,5.17 -3.86,2.09 -8,3.65 -11.96,5.55 0.47,1.14 0.94,2.28 1.41,3.42 -0.89,0.31 -1.78,0.61 -2.67,0.91 -1.9,-3.65 -3.8,-7.26 -5.21,-11.14 0.98,-0.17 1.96,-0.33 2.94,-0.49 0.36,0.89 0.73,1.78 1.09,2.68 3.95,-1.95 8.85,-3.1 12.27,-5.88 2.03,-3.41 -3.14,-8.74 -6.74,-6.97 -3.18,1 -6.27,2.26 -9.42,3.35 0.33,1.38 0.7,2.73 0.95,4.12 l -2.2,0.61 c -2.26,-3.76 -3.61,-8.14 -5.07,-12.26 3.28,-0.59 2.75,0.18 4.39,2.56 7.78,-2.56 15.54,-5.18 23.31,-7.75 -0.18,-2.55 -1.45,-2.99 1.72,-3.81 z"
       fill="#000000"
       id="path2641" />
    <path
       d="m 411.85,329.51 c 2.24,0.73 4.4,1.63 6.58,2.51 -0.49,1.43 -0.99,2.85 -1.56,4.25 -1.33,-0.5 -2.66,-1.03 -3.99,-1.56 -0.3,0.76 -0.6,1.52 -0.9,2.27 2.55,4.97 7.52,5.88 12.17,8.33 0.93,-1.53 1.71,-3.34 2.97,-4.63 1.74,0.12 2.32,0.84 1.72,2.17 -1.61,3.83 -3.96,7.38 -5.97,11.01 -0.88,-0.28 -1.75,-0.56 -2.63,-0.83 0.44,-1.08 0.89,-2.17 1.34,-3.25 -4.37,-2.14 -8.66,-4.46 -13,-6.67 -0.59,0.72 -1.19,1.43 -1.82,2.12 -0.85,-0.27 -1.69,-0.56 -2.53,-0.88 1.13,-2.08 2.31,-4.12 3.57,-6.12 0.86,0.32 1.72,0.64 2.58,0.96 -1.17,-4.06 -0.49,-6.09 1.47,-9.68 z"
       fill="#000000"
       id="path2643"
       style="display:inline" />
    <path
       id="path2645"
       style="stroke-width:1.33333"
       d="m 118.20508,454.90039 c -1.3637,-0.0394 -2.78242,0.14922 -4.23242,0.60547 -4.4,1.17333 -9.73245,4.14823 -11.42578,8.60156 -1.66667,5.69334 2.41226,12.46649 6.57226,16.14649 4.2,3.73333 9.89362,3.3989 14.62695,0.8789 4.53334,-2.42666 9.1073,-6.15857 8.64063,-11.86523 -1.0125,-7.29 -6.81768,-14.15451 -14.18164,-14.36719 z m 1.94922,5.41602 c 5.01721,0.0709 9.58828,6.79382 5.73828,10.92382 -2.77334,3.08 -6.99828,5.97316 -11.23828,6.14649 -5.25334,0.34667 -9.18797,-7.06615 -5.66797,-11.13281 2.29333,-2.66667 5.64034,-4.55987 9.01367,-5.53321 0.71167,-0.28833 1.43755,-0.41442 2.1543,-0.40429 z"
       transform="scale(0.75)" />
    <path
       id="path2649"
       style="stroke-width:1.33333"
       d="m 537.95898,467.24219 c -2.32024,0.0887 -4.44148,1.30893 -6.14648,3.19726 -2.82667,3.21334 -6.03951,7.82758 -5.82617,12.26758 0,2.01333 2.26732,3.65323 3.33398,5.22656 0.92,-1.22666 1.73313,-2.50651 2.45313,-3.83984 -0.12,-1.72 -0.5731,-3.40109 -0.75977,-5.12109 0.56,-2.21334 2.37349,-4.14519 4.16016,-5.47852 2.09333,-0.6 4.43945,0.84013 6.43945,1.4668 -2.41333,4.24 -6.37398,9.34604 -6.33398,14.35937 -0.50667,5.25334 5.9483,10.09282 10.68164,7.13281 4.85333,-3.27999 7.45205,-8.43955 8.02539,-14.21289 0.97333,0.18667 1.93291,0.36021 2.90625,0.54688 l 4.60156,-7.12109 c -0.96,-0.81334 -1.92086,-1.6398 -2.88086,-2.45313 -0.82667,1.02667 -1.63979,2.05341 -2.45312,3.08008 -4.97334,-2.78667 -9.76026,-6.02578 -14.9336,-8.42578 -1.11666,-0.47084 -2.21292,-0.66532 -3.26758,-0.625 z m 6.98829,10.23828 c 1.89333,0.86667 4.50562,2.13255 5.26562,4.19922 0.69333,3.16 -1.70615,6.82635 -4.13281,8.67969 -2.65334,2.05333 -6.09284,-0.73217 -5.82617,-3.79883 0.69333,-3.28 2.73336,-6.41341 4.69336,-9.08008 z"
       transform="scale(0.75)" />
    <path
       d="m 104.85,357.84 c 1.33,1.64 2.55,3.36 3.76,5.08 -0.59,0.59 -1.19,1.17 -1.79,1.75 4.09,0.84 5.47,1.98 8.04,5.15 -1.79,1.45 -3.6,3.42 -5.78,4.26 -0.97,-0.92 -1.83,-1.92 -2.72,-2.92 1.18,-0.95 2.34,-1.9 3.51,-2.86 -1.93,-0.79 -3.35,-1.75 -5.47,-0.79 -3.47,1.54 -6.46,4.29 -9.55,6.48 0.98,1.33 2.33,2.66 2.89,4.23 l -1.77,1.76 c -3.14,-3.47 -6.06,-7.14 -8.69,-11.02 0.88,-0.39 1.77,-0.78 2.65,-1.17 0.58,0.77 1.15,1.53 1.73,2.29 4.05,-2.76 8.06,-5.57 12.11,-8.34 -0.43,-0.97 -0.85,-1.93 -1.26,-2.91 0.77,-0.34 1.55,-0.67 2.34,-0.99 z"
       fill="#000000"
       id="path2651" />
    <path
       d="m 384.19,360.61 c 1.93,1.21 3.74,2.47 5.3,4.15 l -1.48,1.95 c -1.16,-0.66 -2.32,-1.33 -3.47,-2.01 -2.06,2.39 -4.17,4.73 -6.34,7.01 2.34,2.09 4.71,4.16 7.14,6.17 1.65,-1.76 3.27,-3.53 4.9,-5.31 -0.76,-0.61 -1.52,-1.22 -2.29,-1.83 0.62,-0.79 1.23,-1.58 1.85,-2.36 2.19,1.57 4.71,3.13 6.43,5.22 l -1.04,2.32 c -0.92,-0.45 -1.84,-0.9 -2.76,-1.35 -1.6,1.78 -3.21,3.55 -4.85,5.29 2.33,2.05 4.68,4.08 7.02,6.12 1.44,-1.4 2.87,-2.82 4.3,-4.23 0.71,0.49 1.43,0.98 2.14,1.46 -2.95,3.5 -5.98,7.51 -9.76,10.13 l -2.22,-1.21 c 0.71,-0.89 1.43,-1.77 2.15,-2.65 -5.21,-4.76 -10.49,-9.44 -15.64,-14.28 -2.11,0.9 -2.43,1.25 -4.61,-0.11 4.44,-4.8 8.92,-9.55 13.23,-14.48 z"
       fill="#000000"
       id="path2655" />
    <path
       d="m 123.47,370.41 c 0.94,1.05 1.87,2.11 2.87,3.11 -1.47,1.34 -2.94,2.67 -4.42,3.99 1.08,1.15 2.17,2.3 3.25,3.46 -0.71,0.62 -1.41,1.25 -2.12,1.87 -1.13,-1.1 -2.27,-2.19 -3.39,-3.29 -3.77,3.71 -7.63,6.24 -10.47,10.48 1.4,1.09 2.82,2.15 4.24,3.21 -0.38,0.94 -0.77,1.87 -1.16,2.81 -2.39,-1.67 -5.01,-3.15 -6.53,-5.73 -0.92,-1.58 -0.75,-3.65 0.58,-4.95 3.04,-3.15 6.6,-5.81 9.85,-8.76 -0.76,-1.19 -1.11,-2.37 -1.04,-3.53 1.61,-0.8 2.47,0.37 3.84,1.02 1.49,-1.25 2.97,-2.5 4.5,-3.69 z"
       fill="#000000"
       id="path2657" />
    <path
       d="m 129.98,386.68 c 3.77,0.79 5.75,3.42 8.21,6.1 -1.11,1.33 -2.23,2.65 -3.34,3.98 -0.91,-0.53 -1.83,-1.07 -2.74,-1.6 0.67,-0.73 1.34,-1.46 2.01,-2.18 -1.45,-1.21 -2.71,-3.61 -4.9,-2.89 -1.18,0.61 -1.5,1.5 -0.97,2.66 1.07,2.48 3.09,4.68 3.69,7.37 0.23,3.51 -3.3,6.73 -6.81,6.02 -4.45,-0.9 -7.73,-4.42 -10.33,-7.91 1.33,-1.36 2.67,-2.71 4.04,-4.04 0.74,0.64 1.48,1.28 2.22,1.92 -0.64,0.91 -1.27,1.82 -1.91,2.73 1.85,1.88 3.64,3.25 5.96,4.51 0.57,-1.02 1.61,-2.08 1.69,-3.27 -0.98,-2.47 -2.95,-4.63 -3.76,-7.14 -0.77,-3.98 3.2,-7.04 6.94,-6.26 z"
       fill="#000000"
       id="path2659" />
    <path
       d="m 367.75,387.13 c 1.48,1.51 3.05,3.04 4.26,4.79 -0.01,1.27 -2.06,2.15 -2.86,3.02 -1.04,-1.13 -2.07,-2.26 -3.13,-3.37 -0.41,1.83 -1.54,3.14 -0.55,4.98 1.74,3.4 4.73,6.24 7.14,9.2 1.41,-1.02 2.81,-2.05 4.23,-3.05 0.56,0.73 1.12,1.46 1.67,2.19 -3.36,2.67 -6.73,5.61 -10.53,7.63 -2.36,-2.06 -0.55,-2.29 0.57,-4.24 -3.02,-3.64 -6.01,-7.31 -8.91,-11.05 -0.95,0.57 -1.91,1.14 -2.87,1.71 -0.3,-0.91 -0.55,-1.82 -0.76,-2.74 1.52,-1.31 3.24,-2.35 4.95,-3.39 0.56,0.66 1.13,1.31 1.7,1.96 0.62,-4.35 1.46,-5.39 5.09,-7.64 z"
       fill="#000000"
       id="path2661" />
    <path
       d="m 140.25,393.9 c 2.13,0.69 4.02,2.47 5.78,3.83 -1.85,5.1 -3.62,10.23 -5.21,15.42 3.63,-2.63 7.17,-5.38 10.74,-8.09 -1.59,-1.93 -1.55,-1.65 -0.88,-4.03 2.62,1.13 4.86,2.48 7.13,4.2 -5.23,4.33 -10.98,8.33 -16.7,11.99 -1.99,1.69 -4.35,-1.19 -6.06,-2.1 1.74,-5.92 3.64,-11.75 5.72,-17.56 -0.68,-0.58 -1.36,-1.18 -2.03,-1.77 0.49,-0.65 0.99,-1.28 1.51,-1.89 z"
       fill="#000000"
       id="path2663" />
    <path
       d="m 164.55,400.62 c 0.95,-0.8 2.64,-0.29 3.67,0.14 1.86,2.21 -0.18,5.65 -3.01,4.89 -2.42,-0.78 -2.62,-3.58 -0.66,-5.03 z"
       fill="#000000"
       id="path2665" />
    <path
       id="path2667"
       style="stroke-width:1.33333"
       d="m 468.50391,534.69336 c -6.78496,-0.077 -13.88493,5.98107 -12.45118,13.24023 1,5.38667 5.13362,11.89287 10.62696,13.51953 7.37333,1.60001 14.29403,-4.26552 18.7207,-9.49218 -1.32,-0.64 -2.6406,-1.26787 -3.94727,-1.89453 -2.76,2.98666 -5.08013,6.18763 -9.46679,6.65429 -3.26667,0.36 -5.49284,-2.4933 -7.82617,-4.30664 5.01333,-3.12 10.06734,-6.16133 15.02734,-9.36133 -2.26667,-4.12 -5.06734,-7.59869 -10.02734,-8.33203 -0.21792,-0.0154 -0.43738,-0.0249 -0.65625,-0.0273 z m -2.10938,4.43164 c 2.14411,0.0572 3.87003,1.9068 6.00586,3.5293 -3.45333,2.22666 -6.96055,4.37237 -10.56055,6.3457 -0.46666,-3.45333 -2.06703,-6.08096 1.29297,-8.6543 1.225,-0.90416 2.28713,-1.24671 3.26172,-1.2207 z"
       transform="scale(0.75)" />
    <path
       d="m 174.91,402.88 c 1.9,0.83 3.77,1.75 5.62,2.68 -3.76,8.14 -7.75,16.18 -11.59,24.28 0.98,0.46 1.96,0.91 2.93,1.37 -0.29,0.86 -0.57,1.72 -0.87,2.58 -3.8,-1.37 -7.49,-2.97 -11.05,-4.89 1.6,-2.65 2.41,-1.56 4.82,-1.11 3.44,-7.18 7.25,-14.16 10.75,-21.3 -0.81,-0.49 -1.62,-0.99 -2.43,-1.48 0.6,-0.71 1.21,-1.43 1.82,-2.13 z"
       fill="#000000"
       id="path2669" />
    <path
       d="m 159.3,405.95 c 2.24,0.46 4.31,1.92 6.31,2.97 -2.76,5.26 -5.78,10.32 -8.69,15.5 0.95,0.53 1.91,1.07 2.86,1.6 -0.55,1.08 -1.1,2.15 -1.66,3.22 -3.54,-1.64 -6.97,-3.44 -10.35,-5.37 0.47,-1.05 0.96,-2.09 1.44,-3.13 1.13,0.43 2.25,0.88 3.37,1.32 2.28,-3.88 4.57,-7.76 6.97,-11.57 -0.72,-0.76 -1.44,-1.54 -2.13,-2.33 0.6,-0.76 1.23,-1.49 1.88,-2.21 z"
       fill="#000000"
       id="path2673" />
    <path
       d="m 184.84,407.25 c 2.08,0.7 4.12,1.5 6.14,2.33 -3.26,8.27 -6.55,16.52 -9.82,24.78 1,0.5 1.98,1.03 2.94,1.59 -0.09,1.07 -0.48,1.78 -1.16,2.14 -3.82,-0.8 -7.52,-2.43 -11.05,-4.06 2.13,-2.12 1.83,-2.13 4.85,-1.22 3.03,-7.31 6.2,-14.56 9.25,-21.85 -0.73,-0.47 -1.45,-0.94 -2.17,-1.42 0.33,-0.77 0.67,-1.53 1.02,-2.29 z"
       fill="#000000"
       id="path2675" />
    <path
       id="path2677"
       style="stroke-width:1.33333"
       d="m 416.11914,544.70703 c -2.77333,0.82667 -5.53195,1.66602 -8.25195,2.66602 0.49333,4.04 1.15935,2.73409 4.66601,3.10742 1.2,3.05333 2.44003,6.09247 3.69336,9.11914 -4.77333,0.26667 -9.0937,0.41461 -12.70703,3.97461 -3.38667,3.22667 -2.68029,8.69182 -1.62695,12.78516 1.12,4.17333 3.04148,8.86664 7.52148,10.30664 6.08,1.24 11.91865,-1.28019 15.94532,-5.85352 2.10666,3.64 6.67994,-0.29318 9.61328,-0.83984 -1.74667,-2.98667 -2.02623,-2.72011 -5.21289,-2.77344 -4.58667,-10.81333 -9.0673,-21.66552 -13.64063,-32.49219 z m -2.86328,18.78711 c 1.46156,-0.04 3.03172,0.22227 4.63672,0.57227 1.46666,4.21333 3.86679,8.46786 4.4668,12.89453 -1.38667,4.98666 -8.33198,7.74502 -11.94532,3.31836 -2.45333,-3.45334 -4.50784,-8.86675 -3.20117,-13.08008 1.475,-2.73333 3.60703,-3.63841 6.04297,-3.70508 z"
       transform="scale(0.75)" />
    <path
       id="path2679"
       style="stroke-width:1.33333"
       d="m 443.60547,547.77734 c -5.01772,0.10265 -10.24945,3.48422 -11.6582,8.26172 -1.21334,5.13334 1.09247,10.5743 4.11914,14.6543 1.89333,2.52 4.71992,4.12068 7.91992,4.02734 6.21333,0.08 11.77307,-3.74786 16.0664,-7.89453 -1.16,-0.78666 -2.31851,-1.57237 -3.47851,-2.3457 -2.94667,2.53333 -5.77427,5.5856 -9.96094,5.57226 -3.54667,0.26667 -5.34755,-3.03888 -7.57422,-5.18554 5.14667,-2.58667 10.86823,-4.48104 15.60156,-7.73438 0.0133,-2.41333 -2.3482,-4.88021 -3.9082,-6.54687 -1.92958,-2.01667 -4.49862,-2.86236 -7.12695,-2.8086 z m -1.23828,4.22461 c 2.35562,0.0369 3.87312,2.28547 5.95312,4.10547 -3.6,1.86667 -7.267,3.61188 -11.01367,5.17188 -0.4,-3.58667 -1.41362,-6.37185 2.37305,-8.47852 1.02333,-0.57667 1.90229,-0.81112 2.6875,-0.79883 z"
       transform="scale(0.75)" />
    <path
       id="path2683"
       style="stroke-width:1.33333"
       d="m 293.5332,559.77344 c -0.18666,1.42666 -0.37388,2.83896 -0.56054,4.26562 1.06666,0.29334 2.13484,0.58753 3.21484,0.88086 -1.48,8.93334 -3.10781,17.8525 -4.50781,26.8125 -1.46667,-0.0933 -2.94545,-0.18562 -4.41211,-0.26562 l 0.29297,3.37304 c 4.53333,1.25334 9.39974,1.58724 14.0664,2.25391 0.4,-1.18667 0.79888,-2.38789 1.18555,-3.58789 -1.68,-0.25333 -3.37273,-0.50576 -5.05273,-0.73242 0.49333,-3.45334 1.00046,-6.89433 1.48046,-10.34766 1.41334,0.13333 2.82724,0.25339 4.25391,0.38672 2.33333,4.76 4.18505,9.94773 7.01172,14.42773 2.29333,1.4 6.64133,0.89316 9.36133,1.14649 0.0667,-1.14667 0.11854,-2.28073 0.17187,-3.41406 -1.53333,-0.24 -3.07995,-0.46508 -4.61328,-0.70508 -1.45333,-3.84 -2.94638,-7.65448 -4.37305,-11.50781 2.97334,-2.22667 5.44136,-4.26683 6.05469,-8.16016 0.65334,-4.02667 0.71992,-9.77383 -4.08008,-11.17383 -6.76,-0.26667 -12.9608,-2.15901 -19.49414,-3.65234 z m 8.35938,4.61328 c 2.62666,0.76 5.9745,1.12078 8.20117,2.80078 2.81333,2.96 1.9193,8.70534 -1.7207,10.63867 -2.78667,1.50667 -5.57295,1.01435 -8.59961,1.04102 0.68,-4.82667 1.41247,-9.6538 2.11914,-14.48047 z"
       transform="scale(0.75)" />
    <path
       d="m 265.26,420.15 c 2.11,-1.16 4.33,0.38 4.03,2.79 0.33,2.5 -3.45,3.33 -4.73,1.51 -1.01,-0.72 -0.72,-4.1 0.7,-4.3 z"
       fill="#000000"
       id="path2685" />
    <path
       id="path2687"
       style="stroke-width:1.33333"
       d="m 263.92578,562.74805 c -3.525,-0.0583 -7.03909,1.21838 -9.23242,4.01172 -3.56,4.21333 -5.89396,11.45336 -3.64063,16.69335 3.65334,6.22667 13.08013,6.8262 19.4668,6.51954 l -1.13281,-3.62696 c -4.25333,-0.44 -8.16089,0.36117 -11.57422,-2.79882 -2.08,-2.06667 -1.29245,-5.53323 -1.42578,-8.22657 5.84,1.6 11.61422,3.28032 17.57422,4.32031 0.78666,-4.23999 2.23896,-9.14786 -0.73438,-12.89453 -2.24,-2.54666 -5.77578,-3.93971 -9.30078,-3.99804 z m 0.13477,3.83789 c 0.67338,-0.004 1.42515,0.12406 2.28515,0.41406 3.89334,1.37333 2.77451,4.4931 3.20118,7.75977 -4,-0.92 -7.94685,-1.97357 -11.85352,-3.24024 2.03667,-2.4375 3.44921,-4.91832 6.36719,-4.93359 z"
       transform="scale(0.75)" />
    <path
       d="m 290.99,425 c 2.16,0.08 3.51,1.85 4.12,3.76 1.21,3.77 2.05,7.66 3.12,11.48 2.72,0.22 3.16,-0.64 4.17,2.29 -3.57,0.98 -7.16,1.79 -10.81,2.41 -0.23,-0.85 -0.45,-1.71 -0.67,-2.56 0.95,-0.24 1.9,-0.49 2.86,-0.73 -1.14,-3.94 -1.55,-8.39 -3.35,-12.09 -2.12,-3.28 -7.98,-0.01 -7.36,3.43 0.4,3.42 1.25,6.81 1.86,10.2 1.3,-0.05 2.59,-0.1 3.88,-0.13 0.01,0.8 0.01,1.61 0.01,2.42 -3.68,0.75 -7.37,1.35 -11.1,1.77 -0.4,-3.19 0.04,-2.34 2.55,-3.57 -0.76,-4.6 -1.52,-9.2 -2.3,-13.8 -0.95,0.05 -1.89,0.09 -2.84,0.13 -0.06,-0.87 -0.12,-1.73 -0.17,-2.6 1.92,-0.3 3.84,-0.59 5.76,-0.89 0.39,0.44 0.78,0.89 1.17,1.33 2.92,-1.66 5.59,-3.18 9.1,-2.85 z"
       fill="#000000"
       id="path2695" />
    <path
       d="m 262.9,428.41 c 2.32,-0.21 4.64,-0.42 6.96,-0.6 0.74,5.82 1.42,11.65 2.11,17.47 1.07,-0.1 2.14,-0.19 3.21,-0.29 0.27,1.09 0.54,2.17 0.8,3.26 -3.95,0.83 -7.86,1.19 -11.9,1.22 -0.11,-1.11 -0.21,-2.21 -0.3,-3.31 1.1,-0.17 2.2,-0.34 3.3,-0.51 -0.41,-4.51 -0.87,-9.01 -1.19,-13.53 -0.94,-0.09 -1.88,-0.19 -2.82,-0.29 -0.06,-1.14 -0.12,-2.28 -0.17,-3.42 z"
       fill="#000000"
       id="path2697" />
    <path
       id="path2699"
       style="stroke-width:1.33333"
       d="m 336.5625,571.90234 c -4.66662,-0.0497 -9.3993,2.25469 -11.12305,6.80469 -2.18666,5.29333 -2.30692,14.55914 3.06641,18.11914 5.26667,3.21334 13.02831,1.70664 18.68164,0.30664 -0.52,-1.32 -1.04089,-2.63864 -1.57422,-3.94531 -3.82667,1 -7.9331,2.93326 -11.75976,0.91992 -3.05334,-1.74666 -3.11956,-4.70737 -4.2129,-7.7207 5.96001,-0.0267 11.90685,0.0538 17.85352,-0.51953 -0.32,-4.58667 -0.21375,-8.7336 -4.09375,-11.9336 -1.96625,-1.33375 -4.39347,-2.00523 -6.83789,-2.03125 z m -0.61719,3.82618 c 0.40483,-0.003 0.83985,0.0276 1.3086,0.0977 3.54666,0.70667 3.49286,3.89336 4.51953,6.69336 -4.04,0.16 -8.05375,0.17469 -12.09375,0.0547 1.26875,-3.51625 2.35232,-6.81412 6.26562,-6.8457 z"
       transform="scale(0.75)" />
  </g>

<!--The reindeer -->
  <path
     d="m 331.94731,110.95373 c -1.06623,9.16659 -13.52037,16.60057 -12.42452,27.81077 -0.57753,10.81037 3.27272,20.3916 8.47059,29.63225 2.05841,3.24311 4.82764,5.70136 8.97408,4.84245 5.22749,-1.65858 8.21884,-8.21884 11.55081,-12.29124 5.59769,-7.00452 9.46276,-15.04565 14.7791,-22.2427 2.82846,-4.2501 6.66392,-8.73714 8.10037,-13.65363 1.34759,-4.60551 2.8877,-9.06293 4.88687,-13.4167 0.91815,-0.29618 1.83628,-0.59235 2.75443,-0.88852 0.93294,6.56026 1.37721,12.94281 -0.47388,19.39942 -1.55492,7.50802 -6.17523,12.39489 -9.43315,19.11805 -4.35377,8.18922 -7.09338,16.86713 -11.86179,24.84904 -3.76141,6.38256 -7.86343,11.93582 -9.6701,19.29576 -3.37639,11.35828 -1.21431,22.45001 3.25792,33.1271 3.55409,8.69272 -1.51049,18.99959 4.9165,25.9745 6.05676,-1.28836 10.11435,-5.19787 13.35747,-10.27726 4.78321,-7.68572 9.41834,-15.4603 14.55697,-22.92389 1.42163,-0.0592 2.82846,-0.10366 4.2501,-0.1629 2.05841,5.02016 -0.63678,8.47059 -2.07322,13.15014 -2.11766,5.2571 -3.52448,10.91403 -6.14562,15.91938 -4.54628,8.70753 -15.43069,13.50555 -19.26614,22.37597 -3.86508,7.93748 -7.40437,15.43069 -14.15714,21.38379 -6.26409,5.64213 -12.76512,11.06212 -19.11807,16.58577 0.0444,1.27355 0.0889,2.56191 0.13328,3.83546 -1.31797,0.72563 -2.65076,1.43644 -3.96873,2.16207 1.92513,-0.93294 3.86507,-1.79185 5.87906,-2.53229 9.78857,-5.52365 19.72522,-10.7067 29.27685,-16.71904 5.07939,-3.19869 9.40353,-7.27109 14.34964,-10.64747 4.96092,-3.34677 9.25545,-7.95229 12.14315,-13.19457 3.82065,-8.76676 5.73097,-18.59976 8.15961,-27.82559 3.49486,-14.21636 8.88523,-29.61744 9.6849,-44.24846 0.074,-6.39736 0.14809,-12.82434 0.10366,-19.23652 0.1629,-7.89304 -4.66475,-14.02386 -4.413,-22.12423 0.31098,-6.54545 0.96256,-13.46112 3.06541,-19.69559 2.82847,-5.80502 4.99053,-11.23983 11.53599,-13.65365 0.26655,8.05594 -3.79103,14.9272 -3.70218,22.87948 -0.14809,8.69272 1.46606,17.56314 5.31633,25.41176 7.89305,-5.67173 10.97327,-13.69807 17.03003,-20.98395 0.23694,-2.07323 0.45907,-4.14645 0.69601,-6.20486 0.72563,-0.6812 1.46607,-1.37721 2.17689,-2.07322 1.28834,3.83546 2.78403,7.07857 1.79185,11.22501 -2.82847,12.88359 -9.53682,22.90909 -14.98643,34.25257 -1.68819,3.09502 -0.0592,5.47923 0.51831,8.61868 8.826,-2.26573 17.8445,-1.96957 26.72973,-3.55409 5.81983,-2.08804 12.00988,-4.45743 17.29659,-7.67092 6.20486,-6.36775 11.52118,-13.72768 17.04484,-20.68778 1.12546,0.10366 2.23611,0.20731 3.36158,0.31097 -2.22131,7.40436 -5.80503,14.33484 -8.41135,21.62074 -3.77622,9.06293 -15.14932,14.942 -23.87166,18.27396 -8.47059,3.42081 -19.29577,4.38338 -26.25587,10.49938 -7.01933,6.81201 -9.80336,18.14068 -12.58741,27.23324 -2.60633,10.26244 -7.10818,18.48128 -5.19785,29.42492 6.36774,-0.0297 12.12833,-2.35458 18.39242,-3.02097 9.13699,-1.03662 18.06665,-1.62897 26.93706,-4.26491 11.29906,-2.71 24.34554,-7.46361 32.32744,-16.2896 4.78321,-4.96092 6.16043,-13.19457 9.69972,-18.43685 1.31797,-2.05842 4.20567,-2.53229 6.2937,-3.48006 -3.03579,6.58989 -4.9165,13.239 -5.03496,20.5397 6.24928,-1.24393 11.98025,-3.42081 16.67461,-7.86343 5.71617,-4.23529 8.15961,-9.74413 15.03085,-11.50638 -0.74044,8.78158 -6.30851,14.30523 -12.7355,19.63637 -5.41999,5.00534 -12.27642,7.01933 -18.09625,11.47676 -7.84862,5.92349 -16.40807,10.20321 -25.8116,13.04648 -8.94446,3.15425 -17.80008,6.50103 -26.98149,8.94446 -8.90004,2.57672 -18.09625,2.85808 -27.11477,5.10901 -9.46277,1.96957 -17.80007,6.13081 -26.52241,10.09955 -6.72316,2.97655 -12.09872,7.819 -18.52571,11.44715 -11.93583,7.84861 -23.73838,15.80089 -36.19251,22.84984 -7.03414,3.92432 -14.51254,8.05595 -20.42123,13.57961 -2.78404,2.39901 -3.53928,5.50884 -4.90168,8.78157 26.41875,9.25544 49.72768,21.08761 76.88688,26.59645 19.85848,2.65076 36.23693,-4.39819 54.79225,-9.78856 10.44016,-0.88853 20.00659,1.85109 29.73591,5.15344 10.0107,3.16906 20.93954,5.4496 30.93542,0.97737 11.69889,-3.55409 24.46401,-4.19087 36.48869,-2.08802 -2.25093,7.55243 -4.04279,15.56396 -7.16743,22.80542 -8.18922,16.97079 -17.80007,33.14192 -28.34389,48.7355 -3.56889,5.25709 -7.6561,9.81818 -11.65445,14.74948 -5.79022,7.4784 -13.37228,13.01687 -20.37681,19.75484 -6.36775,5.39037 -12.70588,10.98806 -19.5327,15.8009 -9.03331,5.5977 -17.74084,11.50637 -27.5146,15.77129 -12.77993,6.42698 -25.88564,9.61085 -39.36157,14.0979 -3.16907,0.97738 -4.413,2.69519 -5.80502,5.58288 -5.47923,11.25463 -12.15797,24.22707 -12.85398,36.88853 -1.12546,0.0297 -2.23611,0.0297 -3.34676,0.0444 -1.19951,-4.7388 -2.59153,-9.29989 -4.47224,-13.81654 -3.19868,3.9095 -5.13862,7.4784 -6.87124,12.24681 -0.97738,0.0297 -1.93995,0.0592 -2.91733,0.0889 -1.22912,-5.28671 -2.50267,-10.49938 -2.9025,-15.91937 -0.75525,-0.38503 -1.5253,-0.75525 -2.28054,-1.14027 -1.46607,4.29452 -2.65076,8.60386 -3.62814,13.04648 -1.19951,-0.0741 -2.39902,-0.14808 -3.58371,-0.22213 -0.29617,-2.76923 -0.59235,-5.53847 -0.91814,-8.30769 -0.60715,-2.23613 -1.1995,-4.47224 -1.83628,-6.69355 -0.59236,-0.19251 -1.1847,-0.38502 -1.79186,-0.56273 -0.39983,1.8659 -0.82928,3.7318 -1.28836,5.5829 -0.29617,2.01397 -0.59235,4.01315 -0.88852,6.02714 -1.15508,-0.29618 -2.29536,-0.59235 -3.43563,-0.87372 -0.71082,-3.82065 -1.7178,-7.55245 -2.25092,-11.40271 -1.02179,-2.29535 -2.33977,-4.14644 -3.99835,-6.02715 -0.1777,-1.59934 -0.3406,-3.19868 -0.51831,-4.81283 -2.25092,0.72563 -4.51666,1.45125 -6.73796,2.26573 -0.39985,-5.53846 -0.63678,-11.06211 -0.65159,-16.61538 -1.28836,-0.14809 -2.57672,-0.28137 -3.87988,-0.38503 -0.1629,-6.13081 -1.08104,-12.08392 -2.11765,-18.11106 -0.20732,3.31715 -1.3624,5.19786 -3.45043,5.64212 -0.6812,-1.99918 -1.27355,-4.01317 -1.76224,-6.02715 -0.14809,-1.3624 -0.31098,-2.7248 -0.47388,-4.0724 l -4.16125,0.3406 c 0.28137,-11.47675 0.0297,-22.90909 -5.37556,-33.36404 -2.85809,-5.37557 -4.9017,-11.06212 -7.34513,-16.61539 -1.3476,-2.99136 -3.82065,-5.4496 -7.34512,-4.73878 -8.38174,0.79966 -15.87496,-1.45126 -23.87166,-3.56891 -16.94118,-6.36775 -34.31181,-4.13163 -51.87495,-3.93912 -6.70835,-0.074 -11.23982,5.28671 -17.65199,4.93131 -6.76759,0.0592 -13.81654,-1.74744 -19.50308,-5.46443 -5.10901,-3.83546 -7.16743,-11.03249 -10.05512,-16.51171 -1.76225,-3.87989 -4.60552,-7.40437 -3.02099,-11.87661 2.33978,-8.61867 7.37475,-17.69641 16.88194,-19.56231 8.61868,-0.78486 17.07445,-2.05841 25.3081,-4.78322 14.71988,-4.85726 29.75073,-9.24064 44.11518,-15.09008 5.22748,-2.05842 8.07075,-6.47141 13.04648,-9.15179 3.71699,-2.36939 7.83382,-3.16906 12.11354,-3.86508 -12.86878,-0.96257 -24.99712,2.14727 -37.703,3.09503 -13.13534,0.63677 -25.73756,9.67009 -32.17935,20.86548 -1.80667,-0.11847 -3.61333,-0.25175 -5.40518,-0.39984 -0.44427,-3.406 -0.20733,-5.87905 1.08103,-9.07774 0.74044,-3.10983 3.10983,-5.81983 0.19252,-8.52983 -9.37392,-8.70752 -21.69478,-7.92266 -31.49815,-13.7573 1.703,-5.77539 7.16741,-7.06375 11.66927,-10.39571 -2.94694,-8.95928 -12.30605,-9.18141 -16.91156,-16.43768 -0.41464,-3.28754 1.05143,-3.5689 3.28754,-5.28672 3.34677,0.074 6.67873,-0.0148 10.0255,-0.11846 -0.14809,-9.12218 -0.3554,-18.42205 0.56273,-27.4998 0.74044,-3.49486 5.00535,-1.76224 7.58207,-2.16207 0.87371,2.2213 1.73261,4.45743 2.63595,6.66392 3.2283,6.41218 5.58289,12.83916 9.90703,18.65899 4.04279,5.49404 8.11518,11.80255 13.4019,16.14151 6.58987,5.18305 14.54216,9.21102 22.92389,10.27724 7.87824,0.87372 15.7861,1.5253 23.60511,2.69519 8.11517,1.12546 15.46029,-1.05141 23.42739,1.65858 -0.13328,-6.82682 -0.10366,-13.26861 -2.41383,-19.81407 -3.13945,-8.72233 -6.7972,-18.5257 -12.82434,-25.69313 -5.31634,-6.10119 -10.39573,-12.26162 -16.65982,-17.44467 -5.30151,-4.96092 -11.29905,-9.75895 -15.638,-15.57878 -2.85808,-7.33031 -4.04278,-15.22335 -1.1847,-22.7758 4.01317,3.83546 5.10901,8.57424 7.46359,13.4315 3.53929,3.99836 6.2789,8.4854 9.32949,12.82436 1.09586,0.074 2.1917,0.14809 3.27273,0.22213 2.01399,-6.33813 1.37722,-13.0613 3.34678,-19.355 3.50966,-8.76677 9.19621,-16.4821 18.30358,-19.93254 -3.83546,5.67174 -6.7676,12.00987 -9.53682,18.27396 -3.50967,9.71453 -3.09502,20.18429 -0.78487,30.12094 2.78405,5.87906 9.35911,9.5072 12.75032,15.16413 4.2649,7.06376 9.47758,13.22419 14.52735,19.78445 1.62896,1.79186 3.83546,4.70917 6.53064,4.44261 4.62032,0.50351 7.25628,-2.60633 10.60304,-5.13862 5.27191,-4.45742 11.07693,-7.22666 15.51955,-12.61703 5.13863,-5.9383 11.86178,-11.5508 15.75648,-18.36281 3.00617,-6.38256 4.01315,-13.86096 4.62031,-20.83587 -0.23693,-14.33484 -2.08802,-28.71411 -5.55327,-42.63431 -1.59933,-6.66393 -2.82846,-13.03167 -5.41998,-19.38461 -4.42781,-11.31386 -11.12136,-21.44303 -14.80873,-32.81612 -1.5401,-4.84245 -3.86508,-9.77377 -4.60551,-14.80873 -0.5035,-6.54545 -1.05142,-12.55779 3.13945,-18.09625 3.22831,-4.11682 5.99753,-8.67791 9.46278,-12.60222 4.41299,-3.67256 9.99588,-6.17523 15.56396,-7.44878 z"
     fill="#000000"
     id="path2635"
     style="display:inline;stroke-width:1.48088" />
</svg>
