 <svg version="1.0" xmlns="http://www.w3.org/2000/svg" width="700.000000pt" height="663.000000pt" viewBox="0 0 700.000000 663.000000" preserveAspectRatio="xMidYMid meet">
<metadata>
Created by potrace 1.12, written by Peter Selinger 2001-2015
</metadata>
  
Alternative Reindeer 
<g transform="translate(0.000000,663.000000) scale(0.100000,-0.100000)" fill="#00000000" stroke="none">
<path d="M2445 4568 c-5 -14 -13 -55 -14 -74 -1 -6 -12 -23 -25 -37 -22 -24
-27 -25 -62 -15 -22 7 -45 16 -52 21 -7 6 -27 11 -45 13 -18 2 -45 4 -62 6
-25 2 -31 -1 -33 -20 -3 -18 4 -26 35 -38 21 -9 52 -27 70 -40 17 -13 34 -24
37 -24 19 0 103 -95 136 -153 45 -78 47 -87 22 -87 -29 0 -54 -24 -72 -71 -22
-55 -49 -65 -51 -17 -1 18 0 38 1 43 2 6 3 59 2 119 -1 78 -5 112 -14 118 -32
20 -98 -124 -98 -214 l0 -58 -33 0 c-37 0 -61 22 -136 123 -47 61 -59 67 -85
39 -14 -16 -14 -24 -4 -53 6 -19 14 -36 17 -39 4 -3 17 -18 30 -35 57 -75 119
-130 178 -157 96 -43 109 -89 16 -54 -65 24 -123 29 -149 11 -29 -19 -30 -35
-4 -63 14 -15 33 -22 58 -22 29 0 58 -13 125 -57 77 -50 89 -62 98 -97 10 -38
9 -42 -15 -63 -14 -12 -26 -27 -26 -33 0 -5 -5 -10 -11 -10 -7 0 -31 -16 -55
-35 -23 -19 -48 -35 -56 -34 -13 0 -78 92 -78 110 0 5 -20 37 -44 72 -60 87
-74 116 -82 178 -4 30 -11 59 -16 66 -5 7 -7 17 -3 23 4 6 -6 10 -24 10 -24 0
-31 -4 -31 -19 0 -10 -7 -25 -16 -32 -14 -11 -19 -10 -35 10 -16 19 -22 21
-34 11 -17 -14 -20 -46 -4 -55 6 -5 3 -13 -10 -22 -33 -23 -24 -44 39 -95 47
-38 90 -93 90 -115 0 -1 -13 -3 -29 -3 -33 0 -63 24 -55 43 5 15 -22 55 -31
45 -4 -3 -9 -24 -12 -47 -5 -39 -6 -40 -45 -39 -49 1 -55 -6 -38 -37 23 -43
73 -60 177 -60 l92 0 26 -34 c30 -42 31 -53 6 -75 -20 -18 -116 -56 -141 -56
-9 0 -30 14 -48 30 -37 33 -72 40 -72 13 0 -9 6 -24 14 -32 27 -30 22 -43 -23
-56 l-44 -14 -39 40 c-46 46 -71 47 -76 5 -2 -16 -7 -25 -10 -20 -11 15 -69
54 -81 54 -15 0 -14 -77 1 -82 6 -2 8 -9 4 -16 -4 -7 -14 -8 -30 -2 -29 11
-36 5 -36 -28 0 -36 43 -87 94 -111 l44 -22 51 27 c29 14 57 35 65 45 7 10 30
26 52 34 21 9 48 20 59 25 53 23 88 29 106 19 28 -15 24 -24 -23 -52 -49 -29
-91 -67 -114 -102 -9 -14 -22 -25 -29 -25 -6 0 -20 -9 -30 -20 -18 -20 -39
-31 -203 -106 -91 -41 -132 -80 -132 -124 0 -16 -4 -32 -10 -35 -17 -11 -11
-61 10 -80 11 -10 20 -29 20 -41 0 -14 10 -30 24 -39 21 -14 30 -14 92 1 38 8
74 20 81 26 24 20 109 12 150 -13 39 -24 90 -46 131 -56 12 -3 22 -10 22 -15
0 -5 3 -7 8 -5 11 8 84 -37 104 -64 11 -15 22 -57 29 -111 8 -57 16 -88 24
-88 12 0 47 -86 60 -147 3 -17 13 -34 21 -37 8 -3 14 -14 14 -25 0 -10 6 -21
14 -24 8 -3 20 -23 26 -44 7 -21 22 -49 32 -63 11 -14 26 -39 33 -57 8 -20 23
-35 38 -38 14 -4 29 -17 35 -31 8 -15 17 -22 27 -18 10 4 15 0 15 -10 0 -12 9
-16 35 -16 32 0 84 -17 95 -31 3 -4 16 -2 30 4 14 5 30 11 35 12 15 2 48 15
65 26 37 23 68 33 105 35 22 1 59 4 83 7 23 3 42 3 42 -1 0 -16 -161 -162
-186 -168 -15 -4 -52 -30 -81 -59 -47 -46 -53 -56 -53 -93 0 -37 5 -47 51 -89
28 -27 70 -75 93 -108 73 -106 95 -166 96 -265 1 -36 1 -76 1 -90 1 -29 22
-56 63 -77 44 -23 69 -3 115 91 46 92 59 140 42 159 -6 8 -8 16 -5 20 3 3 -32
43 -78 90 -45 46 -98 102 -116 125 -36 43 -65 92 -54 92 3 0 1 5 -6 12 -15 15
-16 38 -1 38 6 0 29 12 52 28 69 44 81 52 97 58 8 3 22 10 30 15 8 5 36 20 62
33 27 13 57 35 69 50 23 30 57 34 65 9 3 -10 10 -26 15 -35 12 -23 12 -124 -1
-168 -6 -19 -13 -74 -17 -121 -5 -69 -2 -96 13 -140 13 -39 18 -81 17 -149 -1
-124 -2 -127 -19 -141 -8 -6 -14 -18 -14 -27 0 -8 -18 -39 -40 -68 -47 -62
-51 -56 75 -99 44 -15 90 -33 102 -41 37 -23 61 -2 83 75 7 26 5 47 -12 95
-11 33 -24 65 -29 71 -5 5 -9 32 -9 60 0 67 21 336 28 355 7 19 10 30 17 60
19 81 24 131 26 263 1 81 6 147 11 147 4 0 8 9 8 19 0 26 56 71 88 71 15 0 99
-6 187 -14 88 -8 169 -13 180 -12 11 2 49 6 85 10 36 4 84 12 107 18 42 10 42
10 102 -42 34 -29 61 -57 61 -61 0 -5 8 -18 18 -28 64 -70 147 -220 139 -252
-3 -10 -1 -22 4 -25 12 -7 11 -48 -2 -98 -14 -49 -73 -179 -91 -198 -7 -7 -19
-31 -27 -53 -7 -22 -30 -62 -50 -90 -71 -95 -66 -106 27 -61 37 18 83 38 103
45 22 7 41 22 47 36 7 14 16 25 21 25 6 0 8 6 5 13 -2 7 7 26 21 41 14 15 25
31 25 35 0 5 11 28 24 52 13 24 39 82 56 128 18 46 45 97 61 114 27 28 28 33
22 91 -4 43 -15 76 -37 111 -32 51 -60 107 -69 136 -5 14 0 15 50 3 52 -12
104 -32 147 -56 35 -19 146 -110 146 -119 0 -5 5 -9 11 -9 6 0 32 -21 57 -47
50 -52 62 -88 65 -195 1 -31 5 -60 10 -64 4 -4 7 -18 7 -31 0 -20 3 -23 28
-17 15 4 43 15 63 25 l36 18 7 158 c3 87 9 179 12 205 7 52 15 42 -114 158
-34 30 -62 61 -62 69 0 8 -7 22 -16 32 -16 18 -24 125 -13 184 10 51 39 127
59 156 11 15 20 36 20 47 0 11 11 45 25 76 14 31 25 68 25 81 0 26 23 35 34
13 5 -11 51 -90 74 -126 12 -19 61 5 67 32 2 12 6 35 9 51 3 17 8 45 12 63 5
24 0 46 -20 86 -14 29 -26 60 -26 69 0 33 -64 82 -145 112 -27 10 -74 38 -103
63 -50 42 -196 122 -223 122 -7 0 -26 4 -43 9 -125 39 -192 46 -456 46 -183 0
-283 -4 -325 -13 -33 -7 -87 -18 -120 -23 -33 -5 -82 -14 -110 -19 -27 -6 -77
-14 -110 -19 -33 -5 -98 -17 -145 -26 -116 -24 -185 -16 -283 29 -88 41 -150
46 -252 20 -161 -41 -204 -47 -258 -35 -76 17 -76 17 -83 24 -4 4 -18 7 -31 7
-12 0 -23 5 -23 11 0 5 -4 8 -9 5 -16 -10 -59 12 -76 38 -14 20 -14 28 -3 45
7 12 21 21 30 21 10 0 18 4 18 9 0 5 22 31 50 58 89 86 57 130 -72 99 -40 -10
-87 -20 -105 -23 -18 -3 -38 -11 -44 -19 -6 -8 -19 -14 -28 -14 -9 0 -22 -5
-28 -11 -8 -8 -17 -8 -31 0 -11 6 -34 11 -51 11 -16 0 -32 4 -35 8 -7 12 58
53 127 82 55 23 98 58 186 153 24 26 47 45 51 42 4 -3 26 26 48 63 22 37 53
81 69 98 15 16 34 42 41 56 8 14 37 43 64 64 59 45 102 107 93 135 -8 26 -38
24 -50 -3 -15 -33 -34 -34 -30 -1 4 35 -23 117 -69 208 -35 68 -46 128 -26
140 6 3 10 19 10 34 0 16 11 44 24 63 13 20 25 54 28 77 3 36 1 41 -17 41 -25
-1 -44 -16 -74 -61 -14 -20 -33 -42 -43 -48 -17 -10 -18 -6 -18 61 0 79 -4 89
-38 107 -18 9 -23 9 -27 -1z m74 -558 c18 -79 2 -192 -30 -223 -11 -10 -19
-24 -19 -32 0 -21 -27 -19 -33 3 -3 9 -13 41 -21 71 l-15 54 34 56 c30 48 35
66 35 116 0 60 1 60 18 37 10 -13 24 -50 31 -82z"></path>
</g>

Hexagon background color
<g transform="translate(0.000000,663.000000) scale(0.100000,-0.100000)" fill="#68a568" stroke="none">
<path d="M3318 6145 c-2 -3 -33 -16 -69 -29 -35 -13 -125 -50 -199 -81 -74
-31 -162 -67 -195 -80 -70 -27 -321 -130 -350 -144 -20 -10 -44 -20 -275 -113
-69 -27 -129 -53 -135 -58 -5 -4 -23 -10 -39 -14 -16 -4 -48 -16 -70 -27 -23
-11 -120 -52 -216 -90 -96 -39 -197 -81 -225 -93 -27 -12 -75 -33 -106 -45
-55 -22 -58 -25 -87 -89 -16 -37 -48 -119 -71 -182 -24 -63 -62 -164 -85 -225
-44 -113 -92 -238 -145 -380 -17 -44 -46 -123 -66 -175 -32 -85 -82 -217 -150
-395 -12 -33 -41 -109 -63 -170 -23 -60 -66 -175 -97 -255 -30 -80 -55 -153
-55 -162 0 -9 9 -38 21 -65 12 -26 29 -70 39 -98 10 -27 43 -115 75 -195 32
-80 67 -172 80 -205 59 -156 109 -284 127 -325 12 -25 29 -67 39 -95 9 -27 37
-102 62 -165 25 -63 77 -198 117 -300 39 -102 88 -228 109 -280 21 -52 48
-123 60 -157 13 -34 31 -69 40 -77 9 -8 95 -45 191 -82 96 -36 194 -74 217
-85 22 -10 112 -46 200 -79 87 -33 172 -67 190 -75 35 -15 285 -115 348 -138
22 -8 103 -41 180 -72 77 -31 174 -69 215 -85 41 -15 149 -58 240 -94 91 -37
173 -69 183 -71 9 -2 21 -7 27 -10 5 -3 36 5 67 18 123 52 411 180 466 208 32
16 62 29 67 29 6 0 34 12 63 26 28 14 81 38 117 54 107 46 387 171 630 280 47
22 128 58 180 81 52 23 142 63 199 89 116 54 116 54 190 218 87 194 273 599
292 636 11 21 28 60 38 85 10 25 58 143 106 261 48 118 123 305 167 415 44
110 93 232 109 271 l29 72 -21 63 c-12 35 -33 98 -49 139 -15 41 -33 91 -39
110 -7 19 -33 91 -57 160 -25 69 -63 175 -84 235 -22 61 -62 173 -90 250 -28
77 -67 185 -86 240 -67 187 -93 260 -149 415 -31 85 -70 196 -87 245 -17 50
-41 113 -53 141 -22 48 -26 52 -97 78 -300 115 -483 187 -525 206 -24 11 -47
20 -53 20 -5 0 -56 18 -112 41 -57 23 -134 54 -173 69 -38 15 -137 53 -220 84
-82 31 -181 70 -220 86 -38 16 -124 50 -190 75 -110 42 -256 98 -379 146 -47
18 -87 24 -98 14z"></path>
</g>

Reindeer Body background
<g transform="translate(0.000000,663.000000) scale(0.100000,-0.100000)" fill="#ffffff" stroke="none">
<path d="M2540 3443 c-8 -3 -49 -22 -90 -41 -41 -19 -81 -36 -90 -37 -12 -3
-481 -224 -802 -379 -103 -49 -104 -65 -13 -156 36 -35 65 -67 65 -70 0 -3 39
-47 88 -97 l87 -91 87 -6 c48 -4 93 -9 100 -11 7 -2 49 -9 94 -14 138 -17 223
-58 336 -163 89 -83 128 -135 128 -172 0 -17 7 -42 16 -54 8 -13 13 -31 9 -42
-3 -11 5 -81 19 -157 14 -76 28 -163 32 -193 14 -123 229 -1011 244 -1010 6 1
37 47 341 495 159 233 154 228 173 206 9 -10 36 -46 59 -80 42 -62 106 -153
306 -440 59 -85 115 -159 125 -165 13 -9 20 -7 32 9 8 11 17 31 20 45 3 14 23
84 44 155 21 72 47 162 58 200 45 157 64 221 73 237 5 10 9 26 9 35 0 10 16
63 34 118 l33 100 622 2 c343 1 629 4 636 7 12 4 15 53 18 258 1 139 6 264 11
278 6 19 5 21 -3 10 -8 -11 -11 75 -11 305 0 237 3 324 12 333 9 9 9 12 0 12
-8 0 -12 17 -12 45 l0 45 -1317 2 -1316 3 -44 100 c-24 55 -46 109 -50 120 -3
11 -15 40 -26 65 -12 25 -35 79 -51 120 -31 76 -46 89 -86 73z"></path>
</g>

Reindeer Outline
<g transform="translate(0.000000,663.000000) scale(0.100000,-0.100000)" fill="#000000" stroke="none">
<path d="M2364 4882 c-50 -40 -56 -88 -19 -147 54 -87 84 -160 78 -187 -6 -33
-13 -34 -88 -8 -71 24 -98 25 -135 3 -54 -32 -66 -102 -26 -150 19 -22 48 -37
115 -57 80 -25 91 -31 91 -51 0 -49 -54 -206 -109 -320 -127 -258 -211 -352
-347 -385 l-51 -13 -129 92 c-71 51 -140 100 -153 110 l-25 17 23 111 c24 121
22 150 -13 182 -36 34 -84 37 -126 9 -31 -21 -37 -33 -54 -103 -10 -44 -20
-82 -22 -83 -1 -2 -31 12 -67 32 -35 20 -71 36 -80 36 -56 0 -114 -68 -103
-122 3 -18 14 -40 24 -51 9 -11 91 -63 182 -117 229 -136 225 -133 116 -125
-48 4 -136 18 -194 31 -127 29 -136 29 -172 7 -55 -32 -66 -102 -25 -151 53
-63 354 -109 645 -99 262 9 398 54 521 174 81 78 142 169 228 341 98 196 119
270 176 628 16 99 16 103 -5 165 -25 75 -100 199 -137 229 -32 25 -90 26 -119
2z"></path>
<path d="M2524 3601 c-17 -11 -92 -70 -167 -133 l-135 -113 -153 -43 c-248
-69 -502 -180 -573 -249 -48 -46 -71 -96 -86 -186 -28 -161 27 -281 156 -339
52 -22 191 -43 229 -34 73 19 99 109 47 167 -23 25 -38 32 -92 39 -123 15
-145 36 -134 122 8 65 31 93 104 125 30 14 78 35 105 48 78 37 249 93 365 121
57 13 114 31 126 39 11 7 69 54 129 104 59 50 111 91 115 91 11 0 -7 -65 -31
-112 -31 -60 -25 -100 21 -153 22 -25 40 -51 40 -56 0 -16 115 -64 210 -88 47
-12 94 -26 105 -30 27 -12 170 -38 277 -51 132 -16 241 -13 377 9 67 12 140
21 161 21 51 0 230 -32 365 -66 92 -23 138 -28 280 -31 185 -4 158 -9 475 76
187 51 259 63 325 55 65 -7 256 -64 318 -95 45 -24 89 -82 117 -158 12 -31 27
-63 35 -71 7 -8 23 -35 35 -59 l22 -45 13 25 c7 13 30 66 50 118 l37 94 -27
71 c-30 78 -98 159 -171 202 -58 34 -246 99 -331 114 -111 20 -274 8 -413 -29
-63 -17 -158 -43 -210 -57 -188 -51 -355 -43 -665 31 -171 41 -290 43 -460 10
-130 -26 -146 -27 -232 -16 -207 25 -506 93 -536 121 -5 4 -1 33 8 65 13 42
16 83 13 146 -4 75 -8 94 -34 135 -49 79 -141 107 -210 65z"></path>
<path d="M3222 1555 c-45 -37 -61 -74 -121 -263 -57 -177 -99 -280 -128 -309
-10 -10 -28 -33 -41 -50 l-23 -32 23 -15 c13 -8 46 -25 73 -37 28 -12 62 -30
76 -40 l26 -18 31 45 c18 24 32 48 32 53 0 4 18 46 39 92 22 46 60 150 86 232
26 81 49 147 51 147 11 0 50 -24 72 -43 43 -40 92 -249 107 -460 4 -55 12 -90
19 -93 12 -5 52 10 143 53 l52 24 -5 47 c-23 203 -70 415 -107 489 -55 107
-184 191 -307 200 -61 5 -68 3 -98 -22z"></path>
<path d="M3889 1515 c-8 -8 39 -353 61 -450 12 -49 23 -99 25 -110 2 -11 4
-21 4 -22 1 -1 29 12 64 29 34 17 72 34 85 39 19 7 22 16 22 59 0 59 -37 328
-49 349 -7 14 -18 18 -69 26 -29 4 -98 51 -106 71 -5 13 -28 19 -37 9z"></path>
<path d="M2650 1338 c-31 -108 -49 -153 -76 -193 -13 -20 -24 -40 -24 -45 0
-11 162 -100 183 -100 13 0 28 23 26 40 0 3 14 37 31 75 28 62 80 222 80 246
0 5 -20 9 -44 9 -24 0 -65 9 -91 20 -26 11 -51 20 -55 20 -5 0 -19 -33 -30
-72z"></path>
<path d="M2364 4882 c-50 -40 -56 -88 -19 -147 54 -87 84 -160 78 -187 -6 -33
-13 -34 -88 -8 -71 24 -98 25 -135 3 -54 -32 -66 -102 -26 -150 19 -22 48 -37
115 -57 80 -25 91 -31 91 -51 0 -49 -54 -206 -109 -320 -127 -258 -211 -352
-347 -385 l-51 -13 -129 92 c-71 51 -140 100 -153 110 l-25 17 23 111 c24 121
22 150 -13 182 -36 34 -84 37 -126 9 -31 -21 -37 -33 -54 -103 -10 -44 -20
-82 -22 -83 -1 -2 -31 12 -67 32 -72 40 -85 43 -127 21 -59 -30 -75 -111 -32
-158 9 -11 91 -63 182 -117 229 -136 225 -133 116 -125 -48 4 -136 18 -194 31
-138 31 -147 31 -188 -10 -43 -43 -46 -90 -9 -134 53 -63 354 -109 645 -99
262 9 398 54 521 174 81 78 142 169 228 341 98 196 119 270 176 628 16 99 16
103 -5 165 -25 75 -100 199 -137 229 -32 25 -90 26 -119 2z"></path>
</g>

Hexagon Outline
<g transform="translate(0.000000,663.000000) scale(0.100000,-0.100000)" fill="#000000" stroke="none">
<path d="M2960 6129 c-201 -83 -630 -259 -955 -391 -324 -132 -606 -248 -625
-258 -63 -32 -16 69 -545 -1180 -92 -217 -214 -505 -272 -640 -58 -135 -107
-261 -110 -280 -5 -35 104 -309 672 -1690 64 -157 126 -308 136 -336 23 -61
48 -86 114 -114 250 -107 1970 -790 1989 -790 32 0 18 -6 596 235 564 234 787
326 1135 470 143 59 276 116 296 126 49 24 87 71 95 117 4 20 94 248 201 507
107 259 284 687 394 952 109 264 199 493 199 508 0 14 -72 214 -161 443 -89
229 -210 543 -269 697 -60 154 -156 404 -215 555 -59 151 -116 300 -126 331
-38 107 0 88 -689 349 -85 32 -270 102 -410 155 -140 54 -300 114 -355 135
-55 21 -197 75 -315 120 -306 117 -346 130 -382 129 -18 0 -196 -67 -398 -150z
m784 -350 c204 -78 531 -202 726 -276 672 -255 725 -275 732 -286 3 -6 41
-101 84 -211 42 -111 133 -345 201 -521 69 -176 153 -394 188 -485 35 -91 105
-270 154 -399 l91 -233 -96 -232 c-53 -127 -102 -238 -108 -246 -7 -8 -33 -67
-58 -130 -141 -357 -181 -455 -223 -555 -26 -60 -60 -144 -75 -185 -16 -41
-55 -138 -88 -215 -32 -77 -67 -161 -77 -187 -10 -26 -23 -52 -29 -56 -6 -5
-74 -35 -151 -67 -77 -31 -286 -118 -465 -192 -179 -74 -377 -155 -440 -180
-63 -24 -142 -57 -175 -73 -68 -32 -186 -80 -290 -117 -38 -14 -75 -30 -82
-35 -7 -5 -54 -27 -105 -48 l-92 -38 -66 25 c-36 13 -103 42 -150 62 -47 21
-116 50 -155 64 -121 43 -209 80 -225 92 -18 15 -186 81 -220 88 -39 7 -973
386 -986 400 -7 6 -139 323 -294 702 -418 1023 -450 1103 -450 1121 0 14 172
424 555 1324 62 146 136 319 163 385 l51 120 328 134 c180 74 578 236 883 362
305 125 559 228 564 228 5 1 176 -62 380 -140z"></path>
</g>

Letters
<g transform="translate(0.000000,663.000000) scale(0.100000,-0.100000)" fill="#000000" stroke="none">
<path d="M3191 4499 c-128 -25 -207 -144 -180 -269 16 -74 70 -128 213 -213
139 -82 166 -107 166 -152 0 -63 -74 -98 -157 -76 -66 18 -101 54 -120 123
-20 71 -49 94 -83 63 -18 -16 -20 -31 -20 -142 0 -68 5 -133 10 -144 14 -24
52 -25 74 0 17 18 18 18 79 -1 80 -25 193 -21 253 10 119 61 166 195 109 308
-30 58 -80 99 -205 169 -166 91 -200 136 -145 190 18 19 35 25 67 25 81 0 148
-56 163 -137 7 -40 30 -73 50 -73 7 0 19 8 28 18 14 15 17 42 17 149 0 113 -2
132 -18 146 -24 22 -31 21 -58 -4 -22 -20 -25 -21 -61 -6 -52 20 -129 27 -182
16z"></path>
<path d="M3734 4469 c-27 -30 -4 -60 57 -73 21 -5 28 -13 33 -43 8 -50 6 -466
-2 -523 -6 -40 -10 -45 -39 -51 -61 -12 -81 -49 -45 -82 16 -14 43 -17 174
-17 152 0 155 0 178 25 l23 25 -22 24 c-13 14 -38 26 -55 28 l-31 3 0 118 c0
70 4 118 10 119 6 1 61 -68 122 -153 62 -84 122 -162 134 -171 32 -27 209 -26
232 0 10 10 17 25 17 34 0 20 -32 48 -56 48 -38 0 -85 41 -152 132 -38 51 -77
105 -86 120 l-18 27 39 19 c75 39 113 104 113 194 0 98 -67 175 -175 203 -43
11 -110 15 -246 15 -175 0 -187 -1 -205 -21z m371 -103 c39 -17 65 -60 65
-110 0 -52 -47 -102 -108 -115 -25 -5 -50 -7 -54 -5 -10 6 -11 228 -1 237 11
12 62 8 98 -7z"></path>
<path d="M4624 4469 c-28 -31 -4 -60 59 -74 l27 -5 -2 -302 -3 -302 -32 -7
c-61 -12 -81 -49 -45 -82 16 -14 43 -17 174 -17 152 0 155 0 178 25 l23 25
-22 24 c-13 14 -38 26 -55 28 l-31 3 0 130 0 130 46 3 c62 4 95 -10 104 -45 8
-32 32 -63 50 -63 7 0 19 8 28 18 14 15 17 41 17 144 0 108 -2 127 -18 141
-35 32 -64 18 -77 -36 -10 -37 -35 -49 -98 -45 l-52 3 0 105 0 105 85 3 c101
3 127 -8 155 -62 26 -49 49 -65 73 -50 14 9 18 28 20 99 4 133 25 125 -308
125 -267 0 -278 -1 -296 -21z"></path>
</g>

Body accent patches
<g transform="translate(0.000000,663.000000) scale(0.100000,-0.100000)" fill="#A9A9A9" stroke="none">
<path d="M2299 3166 c-4 -4 -184 -53 -228 -62 -80 -16 -416 -159 -439 -187
-17 -20 -33 -112 -25 -147 7 -39 40 -55 118 -59 l60 -3 1 46 c2 86 37 113 198
147 191 40 230 56 283 111 36 37 63 94 63 133 0 22 -18 34 -31 21z"></path>
<path d="M5060 2944 c-43 -8 -183 -45 -227 -59 -23 -8 -52 -16 -65 -19 -13 -2
-70 -16 -128 -30 -205 -51 -300 -46 -680 33 -222 47 -262 49 -379 21 -154 -37
-386 -28 -606 24 -33 8 -63 11 -67 7 -13 -12 149 -178 220 -224 137 -91 210
-97 448 -36 154 39 163 40 284 36 132 -5 182 -17 290 -72 137 -68 238 -162
333 -306 34 -52 77 -104 94 -115 47 -31 108 -37 240 -23 64 6 151 9 193 6 106
-7 158 -36 254 -138 42 -45 78 -80 80 -78 2 2 23 49 45 104 23 55 59 141 80
190 47 110 73 174 118 288 l35 87 -23 62 c-25 67 -66 121 -109 143 -16 8 -81
32 -146 54 -115 38 -225 55 -284 45z"></path>
<path d="M2436 2359 c-14 -17 -26 -36 -26 -42 0 -7 12 -83 26 -170 26 -156 27
-160 11 -255 -19 -119 -11 -179 39 -270 47 -86 78 -124 147 -179 104 -81 190
-100 289 -63 182 68 451 445 409 573 -26 78 -72 92 -232 70 -111 -15 -122 -15
-164 2 -63 24 -125 75 -278 231 -114 116 -136 134 -164 134 -23 0 -38 -8 -57
-31z"></path>
<path d="M3792 2217 c-44 -45 -63 -106 -69 -217 -6 -109 12 -201 68 -336 26
-65 44 -91 98 -144 82 -80 113 -95 223 -111 185 -26 430 28 843 186 122 47
215 75 246 75 39 0 45 34 11 59 -67 47 -212 65 -321 40 -77 -17 -272 -28 -356
-18 -155 17 -262 95 -495 358 -129 147 -186 172 -248 108z"></path>
</g>
</svg>
