 <svg version="1.0" xmlns="http://www.w3.org/2000/svg" width="700.000000pt" height="663.000000pt" viewBox="0 0 700.000000 663.000000" preserveAspectRatio="xMidYMid meet">
<metadata>
Created by potrace 1.12, written by Peter Selinger 2001-2015
</metadata>

Hexagon background color
<g transform="translate(0.000000,663.000000) scale(0.100000,-0.100000)" fill="#68a568" stroke="none">
<path d="M3318 6145 c-2 -3 -33 -16 -69 -29 -35 -13 -125 -50 -199 -81 -74
-31 -162 -67 -195 -80 -70 -27 -321 -130 -350 -144 -20 -10 -44 -20 -275 -113
-69 -27 -129 -53 -135 -58 -5 -4 -23 -10 -39 -14 -16 -4 -48 -16 -70 -27 -23
-11 -120 -52 -216 -90 -96 -39 -197 -81 -225 -93 -27 -12 -75 -33 -106 -45
-55 -22 -58 -25 -87 -89 -16 -37 -48 -119 -71 -182 -24 -63 -62 -164 -85 -225
-44 -113 -92 -238 -145 -380 -17 -44 -46 -123 -66 -175 -32 -85 -82 -217 -150
-395 -12 -33 -41 -109 -63 -170 -23 -60 -66 -175 -97 -255 -30 -80 -55 -153
-55 -162 0 -9 9 -38 21 -65 12 -26 29 -70 39 -98 10 -27 43 -115 75 -195 32
-80 67 -172 80 -205 59 -156 109 -284 127 -325 12 -25 29 -67 39 -95 9 -27 37
-102 62 -165 25 -63 77 -198 117 -300 39 -102 88 -228 109 -280 21 -52 48
-123 60 -157 13 -34 31 -69 40 -77 9 -8 95 -45 191 -82 96 -36 194 -74 217
-85 22 -10 112 -46 200 -79 87 -33 172 -67 190 -75 35 -15 285 -115 348 -138
22 -8 103 -41 180 -72 77 -31 174 -69 215 -85 41 -15 149 -58 240 -94 91 -37
173 -69 183 -71 9 -2 21 -7 27 -10 5 -3 36 5 67 18 123 52 411 180 466 208 32
16 62 29 67 29 6 0 34 12 63 26 28 14 81 38 117 54 107 46 387 171 630 280 47
22 128 58 180 81 52 23 142 63 199 89 116 54 116 54 190 218 87 194 273 599
292 636 11 21 28 60 38 85 10 25 58 143 106 261 48 118 123 305 167 415 44
110 93 232 109 271 l29 72 -21 63 c-12 35 -33 98 -49 139 -15 41 -33 91 -39
110 -7 19 -33 91 -57 160 -25 69 -63 175 -84 235 -22 61 -62 173 -90 250 -28
77 -67 185 -86 240 -67 187 -93 260 -149 415 -31 85 -70 196 -87 245 -17 50
-41 113 -53 141 -22 48 -26 52 -97 78 -300 115 -483 187 -525 206 -24 11 -47
20 -53 20 -5 0 -56 18 -112 41 -57 23 -134 54 -173 69 -38 15 -137 53 -220 84
-82 31 -181 70 -220 86 -38 16 -124 50 -190 75 -110 42 -256 98 -379 146 -47
18 -87 24 -98 14z"></path>
</g>

Reindeer
<g transform="translate(-60.000000,660.000000) scale(0.100000,-0.100000)" fill="#000000" stroke="none">
<path d="M2902 4658 c-7 -7 -12 -15 -12 -20 0 -4 31 -72 69 -151 98 -203 112
-255 113 -402 1 -121 -13 -211 -47 -292 -14 -32 -17 -35 -30 -22 -8 8 -24 66
-35 129 -12 63 -30 128 -41 146 -16 26 -18 42 -13 89 l7 57 -31 -7 c-30 -6
-32 -5 -67 64 -19 39 -35 77 -35 85 0 31 -23 66 -44 66 -65 -1 -60 -60 18
-226 31 -66 56 -129 56 -141 0 -11 9 -46 20 -77 11 -32 27 -92 35 -134 9 -43
27 -110 42 -151 l27 -74 -13 -226 c-7 -126 -18 -237 -24 -251 -7 -13 -25 -29
-40 -34 -24 -9 -42 -3 -131 42 -93 48 -107 59 -153 120 -103 137 -189 294
-177 325 9 24 63 45 139 52 79 8 201 33 228 47 21 11 22 47 2 55 -9 3 -42 -2
-74 -11 -35 -10 -95 -16 -156 -16 -68 0 -113 -5 -142 -16 -23 -9 -49 -14 -57
-11 -24 10 -74 106 -81 158 -4 27 -4 62 0 78 9 42 76 114 145 156 58 35 68 48
52 71 -23 34 -89 16 -177 -47 -37 -27 -47 -30 -60 -19 -19 16 -19 59 0 130 20
75 19 107 -4 120 -26 13 -47 -8 -61 -61 -9 -32 -15 -39 -30 -34 -25 8 -50 -29
-50 -75 0 -63 87 -378 120 -437 27 -47 28 -53 10 -43 -11 6 -25 8 -30 5 -6 -4
-17 1 -26 9 -19 19 -32 13 -45 -22 -9 -23 -12 -24 -19 -11 -16 29 -32 161 -26
212 7 52 -10 97 -38 97 -21 0 -46 -73 -46 -133 0 -47 27 -264 50 -395 13 -73
102 -220 188 -308 59 -60 70 -77 76 -117 10 -64 53 -102 107 -93 29 5 40 2 47
-10 5 -9 22 -18 37 -19 49 -6 51 -21 12 -65 -26 -28 -37 -49 -37 -71 0 -26
-15 -47 -87 -121 -49 -50 -114 -110 -145 -135 -61 -46 -79 -82 -60 -114 7 -10
16 -38 22 -63 13 -58 60 -138 91 -154 15 -8 50 -12 92 -10 67 4 70 5 110 50
46 49 111 81 188 91 l47 6 61 -66 c33 -36 61 -72 61 -80 0 -7 5 -13 10 -13 6
0 10 -8 10 -19 0 -10 6 -24 14 -30 8 -7 22 -47 32 -89 14 -60 24 -82 46 -100
15 -13 28 -32 28 -42 0 -23 16 -35 25 -19 7 10 18 -4 41 -49 4 -8 17 -24 29
-36 12 -12 24 -27 26 -33 2 -6 22 -14 43 -17 22 -4 44 -13 51 -22 12 -18 55
-19 182 -5 7 0 18 20 24 44 7 23 16 46 20 51 4 4 61 10 126 11 110 3 121 2
160 -21 39 -22 42 -28 58 -96 13 -58 16 -114 13 -273 -2 -120 2 -226 9 -266 8
-51 8 -101 -2 -215 -7 -82 -15 -156 -19 -165 -6 -13 9 -18 91 -32 54 -9 112
-19 130 -23 30 -6 32 -4 37 27 3 19 10 128 16 244 12 233 22 348 40 445 8 42
10 114 6 205 l-6 140 213 23 c417 45 598 83 701 146 33 20 67 36 76 36 9 0 43
9 76 20 l59 19 33 -32 c19 -18 55 -59 80 -92 25 -33 96 -112 157 -175 79 -82
121 -134 145 -182 l35 -68 118 0 117 0 0 104 c0 98 -2 108 -34 172 -52 105
-66 176 -66 327 l0 132 55 110 c30 61 59 117 65 125 31 49 70 154 70 192 0 24
5 80 10 125 11 88 5 121 -32 160 -12 13 -36 25 -54 29 -22 4 -55 27 -101 73
-79 77 -158 120 -288 157 -79 22 -116 26 -295 31 -245 6 -244 7 -625 -105
-213 -63 -338 -82 -578 -89 -140 -3 -235 -10 -257 -18 -19 -7 -68 -25 -108
-39 -39 -15 -87 -35 -105 -46 -56 -32 -210 -88 -252 -90 -22 -2 -55 -2 -74 -1
l-35 1 26 28 c43 45 61 79 47 87 -6 4 -41 8 -77 9 l-67 1 -27 52 -27 52 28 20
c16 12 37 21 48 21 11 0 25 14 35 38 10 20 40 63 66 95 74 87 97 138 151 333
60 215 78 257 130 309 23 22 41 49 41 61 0 30 -24 47 -52 38 -13 -4 -25 -7
-27 -8 -2 -1 -5 18 -7 42 -2 24 -11 56 -19 72 -8 16 -15 35 -15 43 0 24 -28
41 -44 28 -11 -9 -13 -36 -9 -131 l6 -118 -42 -125 c-22 -69 -41 -134 -41
-145 0 -30 -53 -187 -90 -264 -50 -106 -164 -195 -183 -144 -3 8 -2 83 4 167
12 187 36 292 80 344 9 11 28 70 43 131 21 91 26 135 26 247 0 88 4 138 11
143 6 3 18 22 26 41 11 27 18 33 31 28 36 -16 57 -11 60 14 6 39 -7 69 -36 83
-21 10 -28 22 -32 53 -5 37 -8 40 -35 40 -26 0 -31 -5 -48 -50 -10 -27 -22
-54 -27 -59 -5 -5 -25 24 -45 65 -50 100 -116 212 -129 221 -16 11 -41 9 -54
-4z m-714 -1120 c-14 -84 -28 -171 -30 -191 -2 -17 -3 -17 -15 -1 -19 25 -16
137 4 217 17 65 18 67 34 48 13 -16 15 -29 7 -73z m150 -226 l21 -29 -31 6
c-27 6 -35 15 -55 61 -22 55 -29 101 -16 113 3 4 18 -22 33 -57 15 -35 37 -78
48 -94z m162 -191 c0 -16 -63 20 -112 62 -30 27 -35 37 -31 61 l6 29 68 -70
c38 -39 69 -76 69 -82z m230 -142 c0 -5 -4 -9 -10 -9 -5 0 -10 7 -10 16 0 8 5
12 10 9 6 -3 10 -10 10 -16z m248 -26 c2 -9 -7 -13 -28 -13 -28 0 -31 2 -20
15 15 18 41 16 48 -2z"></path>
</g>

Hexagon Outline
<g transform="translate(0.000000,663.000000) scale(0.100000,-0.100000)" fill="#000000" stroke="none">
<path d="M2960 6129 c-201 -83 -630 -259 -955 -391 -324 -132 -606 -248 -625
-258 -63 -32 -16 69 -545 -1180 -92 -217 -214 -505 -272 -640 -58 -135 -107
-261 -110 -280 -5 -35 104 -309 672 -1690 64 -157 126 -308 136 -336 23 -61
48 -86 114 -114 250 -107 1970 -790 1989 -790 32 0 18 -6 596 235 564 234 787
326 1135 470 143 59 276 116 296 126 49 24 87 71 95 117 4 20 94 248 201 507
107 259 284 687 394 952 109 264 199 493 199 508 0 14 -72 214 -161 443 -89
229 -210 543 -269 697 -60 154 -156 404 -215 555 -59 151 -116 300 -126 331
-38 107 0 88 -689 349 -85 32 -270 102 -410 155 -140 54 -300 114 -355 135
-55 21 -197 75 -315 120 -306 117 -346 130 -382 129 -18 0 -196 -67 -398 -150z
m784 -350 c204 -78 531 -202 726 -276 672 -255 725 -275 732 -286 3 -6 41
-101 84 -211 42 -111 133 -345 201 -521 69 -176 153 -394 188 -485 35 -91 105
-270 154 -399 l91 -233 -96 -232 c-53 -127 -102 -238 -108 -246 -7 -8 -33 -67
-58 -130 -141 -357 -181 -455 -223 -555 -26 -60 -60 -144 -75 -185 -16 -41
-55 -138 -88 -215 -32 -77 -67 -161 -77 -187 -10 -26 -23 -52 -29 -56 -6 -5
-74 -35 -151 -67 -77 -31 -286 -118 -465 -192 -179 -74 -377 -155 -440 -180
-63 -24 -142 -57 -175 -73 -68 -32 -186 -80 -290 -117 -38 -14 -75 -30 -82
-35 -7 -5 -54 -27 -105 -48 l-92 -38 -66 25 c-36 13 -103 42 -150 62 -47 21
-116 50 -155 64 -121 43 -209 80 -225 92 -18 15 -186 81 -220 88 -39 7 -973
386 -986 400 -7 6 -139 323 -294 702 -418 1023 -450 1103 -450 1121 0 14 172
424 555 1324 62 146 136 319 163 385 l51 120 328 134 c180 74 578 236 883 362
305 125 559 228 564 228 5 1 176 -62 380 -140z"></path>
</g>

Letters
<g transform="translate(0.000000,663.000000) scale(0.100000,-0.100000)" fill="#000000" stroke="none">
<path d="M3191 4499 c-128 -25 -207 -144 -180 -269 16 -74 70 -128 213 -213
139 -82 166 -107 166 -152 0 -63 -74 -98 -157 -76 -66 18 -101 54 -120 123
-20 71 -49 94 -83 63 -18 -16 -20 -31 -20 -142 0 -68 5 -133 10 -144 14 -24
52 -25 74 0 17 18 18 18 79 -1 80 -25 193 -21 253 10 119 61 166 195 109 308
-30 58 -80 99 -205 169 -166 91 -200 136 -145 190 18 19 35 25 67 25 81 0 148
-56 163 -137 7 -40 30 -73 50 -73 7 0 19 8 28 18 14 15 17 42 17 149 0 113 -2
132 -18 146 -24 22 -31 21 -58 -4 -22 -20 -25 -21 -61 -6 -52 20 -129 27 -182
16z"></path>
<path d="M3734 4469 c-27 -30 -4 -60 57 -73 21 -5 28 -13 33 -43 8 -50 6 -466
-2 -523 -6 -40 -10 -45 -39 -51 -61 -12 -81 -49 -45 -82 16 -14 43 -17 174
-17 152 0 155 0 178 25 l23 25 -22 24 c-13 14 -38 26 -55 28 l-31 3 0 118 c0
70 4 118 10 119 6 1 61 -68 122 -153 62 -84 122 -162 134 -171 32 -27 209 -26
232 0 10 10 17 25 17 34 0 20 -32 48 -56 48 -38 0 -85 41 -152 132 -38 51 -77
105 -86 120 l-18 27 39 19 c75 39 113 104 113 194 0 98 -67 175 -175 203 -43
11 -110 15 -246 15 -175 0 -187 -1 -205 -21z m371 -103 c39 -17 65 -60 65
-110 0 -52 -47 -102 -108 -115 -25 -5 -50 -7 -54 -5 -10 6 -11 228 -1 237 11
12 62 8 98 -7z"></path>
<path d="M4624 4469 c-28 -31 -4 -60 59 -74 l27 -5 -2 -302 -3 -302 -32 -7
c-61 -12 -81 -49 -45 -82 16 -14 43 -17 174 -17 152 0 155 0 178 25 l23 25
-22 24 c-13 14 -38 26 -55 28 l-31 3 0 130 0 130 46 3 c62 4 95 -10 104 -45 8
-32 32 -63 50 -63 7 0 19 8 28 18 14 15 17 41 17 144 0 108 -2 127 -18 141
-35 32 -64 18 -77 -36 -10 -37 -35 -49 -98 -45 l-52 3 0 105 0 105 85 3 c101
3 127 -8 155 -62 26 -49 49 -65 73 -50 14 9 18 28 20 99 4 133 25 125 -308
125 -267 0 -278 -1 -296 -21z"></path>
</g>
</svg>
