 <svg version="1.0" xmlns="http://www.w3.org/2000/svg" width="700.000000pt" height="516.000000pt" viewBox="0 0 700.000000 516.000000" preserveAspectRatio="xMidYMid meet">
<metadata>
Created by potrace 1.12, written by Peter Selinger 2001-2015
</metadata>
<g transform="translate(0.000000,516.000000) scale(0.100000,-0.100000)" fill="#000000" stroke="none">
<path d="M2684 5091 c-32 -15 -47 -30 -68 -72 -14 -29 -26 -61 -26 -70 0 -10
-11 -53 -25 -96 -27 -87 -62 -130 -130 -159 -32 -15 -77 -19 -235 -21 -107 -2
-207 -9 -222 -14 -48 -19 -64 -115 -28 -162 25 -32 86 -52 229 -76 119 -20
161 -39 161 -72 0 -50 -96 -197 -195 -295 -92 -93 -217 -173 -445 -286 l-185
-92 -100 -4 c-72 -2 -121 -11 -174 -29 -50 -16 -85 -23 -107 -19 -39 8 -93 64
-130 138 -14 28 -45 77 -68 107 -39 52 -41 58 -40 120 1 55 11 90 57 206 30
77 58 158 62 180 7 46 -7 93 -30 102 -24 9 -53 -24 -176 -199 -181 -259 -187
-264 -259 -178 -55 65 -84 67 -134 8 -20 -23 -45 -61 -57 -85 -17 -36 -19 -48
-9 -77 16 -50 117 -141 272 -244 142 -95 163 -116 174 -169 5 -28 3 -33 -26
-48 -46 -24 -158 -30 -294 -16 -166 18 -297 16 -335 -4 -38 -19 -45 -33 -61
-124 -11 -68 -11 -75 7 -100 14 -19 34 -28 69 -35 27 -4 94 -19 149 -32 166
-41 324 -51 495 -31 526 59 1108 347 1508 748 200 200 291 360 418 732 71 208
99 376 73 444 -18 48 -48 54 -115 24z"></path>
<path d="M2025 3316 c-33 -13 -123 -53 -200 -90 -91 -44 -184 -80 -265 -103
-69 -19 -157 -45 -197 -59 -40 -13 -94 -24 -125 -24 -90 0 -239 -27 -349 -64
-57 -19 -144 -46 -194 -61 -167 -50 -252 -110 -296 -209 -25 -57 -49 -202 -49
-296 0 -168 51 -324 119 -364 63 -37 298 -19 391 29 43 22 39 52 -20 155 -59
102 -69 143 -45 189 29 56 96 79 255 86 316 14 365 38 433 212 31 79 76 132
140 164 23 12 72 50 110 85 64 61 107 81 107 50 0 -8 -11 -38 -25 -68 -39 -83
-32 -106 35 -118 49 -9 62 2 135 111 101 150 174 322 158 367 -14 38 -35 40
-118 8z"></path>
<path d="M3990 3063 c-19 -2 -156 -28 -305 -57 -241 -48 -515 -86 -616 -86
-22 0 -51 10 -73 25 -91 62 -173 86 -355 104 -141 15 -404 13 -464 -3 l-48
-12 22 -20 c12 -10 63 -82 114 -160 147 -222 202 -267 343 -283 42 -5 221 -12
396 -15 436 -9 617 -29 782 -86 103 -35 103 -36 254 -135 152 -101 294 -215
460 -369 74 -69 139 -121 159 -127 53 -18 178 -4 280 30 49 17 179 68 288 114
109 47 214 88 233 91 19 4 42 9 50 12 8 2 21 0 28 -5 21 -13 51 -147 58 -256
6 -89 4 -111 -20 -196 -16 -61 -26 -122 -26 -166 0 -44 -5 -76 -14 -89 -14
-18 -15 -18 -24 6 -5 14 -26 70 -46 125 -60 161 -94 207 -140 189 -14 -5 -16
-26 -16 -150 0 -146 -13 -214 -41 -214 -42 0 -117 96 -138 177 -14 51 -45 92
-60 78 -5 -5 -17 -66 -26 -135 -29 -221 -65 -336 -111 -354 -25 -9 -31 -1 -37
53 -3 28 -28 104 -55 168 -73 174 -83 244 -41 310 14 23 8 40 -10 28 -34 -20
-91 -198 -91 -284 -1 -40 -2 -44 -13 -26 -7 13 -13 81 -15 193 -2 94 -7 172
-10 172 -10 -1 -59 -113 -83 -190 -15 -45 -23 -103 -26 -187 -3 -68 -9 -120
-14 -117 -5 2 -17 25 -28 49 -11 25 -31 59 -44 77 -14 18 -67 121 -120 229
-108 225 -147 277 -228 304 -28 9 -54 14 -57 11 -11 -11 29 -128 92 -271 88
-197 118 -287 124 -371 4 -59 1 -73 -14 -89 -19 -18 -19 -18 -22 11 -2 16 -8
34 -13 40 -5 6 -18 37 -28 67 -25 72 -219 389 -291 475 -69 82 -124 127 -145
118 -31 -11 -4 -257 45 -410 33 -104 30 -101 -73 67 -37 62 -77 142 -88 180
-22 72 -29 80 -52 71 -55 -21 -46 -306 15 -512 11 -40 19 -74 17 -76 -30 -24
-251 -161 -272 -169 -40 -14 -223 -2 -278 17 -82 30 -96 54 -109 186 -22 226
-69 373 -127 399 -14 7 -28 9 -31 7 -3 -3 3 -64 13 -136 17 -126 17 -138 0
-325 -10 -107 -19 -195 -20 -195 -11 0 -75 185 -129 371 -92 320 -135 407
-270 547 -73 76 -114 94 -102 46 4 -15 43 -104 87 -198 79 -166 81 -173 86
-261 l5 -90 -53 90 c-97 168 -108 191 -123 255 -17 71 -49 115 -67 90 -10 -15
-6 -255 7 -385 l6 -60 -31 50 c-32 53 -83 202 -100 295 -33 172 -41 459 -16
530 18 50 18 50 6 50 -5 0 -15 -17 -21 -37 -7 -21 -30 -80 -51 -130 -57 -134
-82 -247 -82 -373 -1 -58 4 -122 10 -142 6 -21 10 -38 8 -38 -1 0 -22 32 -45
71 -23 38 -47 68 -53 66 -17 -5 -9 -193 9 -232 23 -50 64 -472 64 -662 0 -152
34 -109 75 96 38 190 49 208 80 133 29 -68 47 -207 52 -404 3 -109 9 -198 12
-198 11 0 61 160 72 230 13 85 16 263 5 318 -7 35 -6 42 7 42 42 0 77 -122
101 -350 22 -201 34 -260 51 -260 19 0 43 38 51 81 4 18 26 76 50 128 34 72
44 105 44 144 0 79 18 44 30 -58 5 -50 10 -118 10 -152 0 -35 4 -63 9 -63 9 0
14 19 26 97 14 89 25 51 25 -81 0 -131 12 -185 25 -109 14 80 31 128 47 131
28 5 32 -48 8 -104 -24 -53 -120 -397 -120 -426 0 -17 20 -18 284 -18 l284 0
24 29 c33 38 54 120 72 276 20 165 29 198 72 245 48 52 89 70 167 70 54 0 67
-3 71 -18 6 -17 96 -576 96 -593 0 -5 104 -9 248 -9 l248 0 1 203 c1 147 -3
224 -14 285 -15 78 -15 87 3 160 14 58 19 114 19 230 0 147 1 152 17 132 35
-43 86 -235 115 -429 8 -51 28 -79 37 -49 2 7 16 51 31 98 24 73 29 110 35
260 9 199 7 180 21 180 17 0 67 -120 84 -203 18 -93 22 -180 10 -265 -8 -64
-8 -64 16 -60 22 3 25 9 31 68 3 36 20 117 37 180 22 82 31 137 31 193 0 91
11 93 37 9 14 -47 17 -91 15 -250 -2 -131 1 -192 8 -187 5 3 10 14 10 23 0 9
16 61 35 117 43 126 65 306 47 385 -15 63 -15 83 -2 75 6 -3 10 -18 10 -32 0
-40 78 -281 112 -344 36 -70 83 -118 99 -102 6 6 20 67 31 135 30 194 48 265
69 290 l20 23 -6 -35 c-3 -19 -8 -78 -12 -130 -5 -85 -3 -98 14 -119 36 -44
48 -24 67 109 9 66 22 133 27 148 l11 27 18 -23 c26 -32 33 -94 28 -238 -5
-118 -4 -124 15 -124 76 0 176 288 163 470 -8 99 4 70 43 -106 18 -76 35 -142
40 -147 17 -17 32 25 46 128 8 59 16 110 19 113 3 3 6 -24 6 -59 0 -74 14
-105 33 -76 35 54 34 54 49 2 8 -31 19 -50 28 -50 21 0 56 95 68 181 7 46 22
95 47 144 l37 73 37 -69 c20 -38 51 -90 70 -116 56 -78 61 -120 71 -563 9
-431 16 -494 66 -605 l27 -60 264 0 265 0 -6 32 c-22 118 -28 238 -36 688 -5
315 -5 521 1 549 16 74 107 631 119 731 19 156 -5 344 -71 553 l-31 97 -96 90
c-320 304 -551 353 -1162 249 -247 -42 -362 -58 -487 -65 -197 -11 -470 30
-704 106 -118 38 -140 42 -219 33z"></path>
</g>
</svg>