<svg version="1.0" xmlns="http://www.w3.org/2000/svg" width="962.000000pt" height="962.000000pt" viewBox="-50 -50 700.000000 962.000000" preserveAspectRatio="xMidYMid meet">
<metadata>
	Created by potrace 1.12, written by Peter Selinger 2001-2015
</metadata>
<!--Import the logo font-->
<defs>
	<style>
		@import url("https://fonts.googleapis.com/css?family=Crete Round");
	</style>
</defs>
<style><![CDATA[svg text{stroke:none}]]></style>

<!--The background part of the reindeer -->
<g transform="translate(0.000000,905.000000) scale(0.100000,-0.100000)" fill="#000000" stroke="none">
	<path d="M4610 5693 c-19 -3 -39 -9 -44 -14 -6 -5 -20 -9 -33 -9 -23 0 -78
-32 -147 -84 -38 -30 -81 -54 -197 -113 -70 -35 -100 -47 -111 -45 -4 1 -20
-3 -35 -10 -15 -6 -104 -14 -198 -18 -93 -4 -183 -11 -198 -15 -22 -6 -33 -3
-52 15 -21 20 -25 21 -47 6 -12 -8 -45 -40 -72 -71 -44 -49 -130 -105 -161
-105 -13 0 -85 -72 -85 -85 0 -6 -27 -39 -60 -75 -62 -66 -79 -94 -100 -165
-7 -22 -18 -49 -25 -60 -6 -11 -15 -35 -18 -52 -4 -18 -15 -51 -26 -73 -11
-23 -23 -67 -26 -98 -6 -53 -15 -88 -35 -137 -5 -11 -11 -180 -15 -375 -6
-336 -5 -357 12 -372 27 -24 91 -58 111 -58 9 0 41 -11 71 -25 29 -14 72 -28
94 -32 23 -3 55 -14 72 -24 16 -9 52 -20 79 -24 47 -6 63 -12 133 -41 17 -8
37 -14 44 -14 7 0 20 -7 29 -15 15 -14 21 -13 63 10 25 14 78 32 119 40 66 12
129 31 183 54 11 5 36 16 55 24 19 8 60 27 91 41 31 14 58 26 61 26 15 0 290
138 338 170 66 44 138 88 240 147 99 57 243 183 302 263 26 36 61 81 78 100
59 68 190 258 190 276 0 3 16 24 35 47 19 22 39 54 43 71 14 52 9 353 -5 367
-7 7 -13 23 -13 36 0 22 -17 75 -47 141 -16 37 -44 80 -90 139 -16 21 -33 46
-36 56 -4 9 -11 17 -18 17 -6 0 -25 12 -42 26 -34 29 -127 77 -172 89 -35 10
-44 12 -110 24 -27 5 -68 14 -90 20 -40 11 -70 11 -135 4z"></path>
</g>

<!-- The circle -->
<circle cx="330" cy="310" r="245" stroke="#309e2c" stroke-width="18" fill="transparent" />

<!--The text path and text-->
<path id="textPath"
	  d="M 0,-1
C 0.5523, -1   1, -0.5523    1,0
C 1, 0.5523    0.5523, 1     0,1
C -0.5523, 1   -1, 0.5523    -1,0
C -1, -0.5523  -0.5523, -1   0,-1"
	  stroke="none" stroke-width="0.01" fill="none"
	  transform="translate(330,310) scale(320,-320) rotate(-80)" />
<text class="text"  font-size="80px"  font-family="Crete Round">
	<textPath href="#textPath">Shortsville Reindeer Farm</textPath>
</text>

<!--The foreground part of the reindeer -->
<g xmlns="http://www.w3.org/2000/svg" transform="translate(-178.000000,814.000000) scale(0.12319,-0.12319)" fill="black" stroke="none">
<path d="M3640 5808 c-10 -24 -23 -77 -30 -119 -13 -88 2 -188 47 -313 59 -164 201 -817 210 -967 5 -73 2 -99 -21 -179 -15 -52 -34 -106 -42 -122 -14 -27 -17 -28 -90 -28 -90 0 -122 14 -162 73 -16 23 -40 51 -52 62 -66 59 -125 247 -136 435 -8 118 -1 140 72 236 70 91 104 199 67 211 -7 3 -18 -11 -26 -29 -19 -45 -67 -92 -80 -79 -6 6 -12 48 -15 93 -5 101 16 206 58 296 32 68 29 89 -8 78 -25 -8 -75 -85 -96 -147 -46 -135 -71 -352 -70 -594 1 -222 12 -279 79 -427 46 -98 55 -151 34 -189 -9 -17 -19 -20 -62 -18 -58 3 -64 -4 -52 -68 13 -73 52 -85 138 -40 28 15 49 18 81 14 59 -8 96 -27 96 -47 0 -16 -61 -77 -128 -127 -16 -12 -36 -37 -45 -55 -9 -18 -26 -43 -39 -55 -42 -39 -302 -205 -364 -233 -67 -31 -104 -69 -104 -109 0 -27 30 -145 48 -192 17 -44 68 -79 115 -79 123 0 489 -52 538 -76 29 -14 78 -87 97 -143 10 -29 7 -51 -24 -167 -19 -74 -49 -163 -66 -200 -31 -66 -30 -79 7 -86 19 -3 20 -11 18 -155 l-1 -152 26 2 c26 2 27 -1 30 -50 3 -52 14 -68 26 -38 9 25 36 18 36 -10 0 -29 8 -31 36 -10 10 8 26 15 35 15 8 0 30 11 49 25 36 27 56 24 40 -5 -18 -33 11 -36 36 -4 l24 29 28 -34 28 -33 54 18 c30 10 69 28 86 41 23 16 34 19 42 11 9 -9 18 -9 34 0 13 6 32 12 43 14 13 2 30 23 48 57 32 64 36 152 13 261 -21 98 2 524 35 651 5 20 9 79 9 130 0 91 9 154 45 326 9 45 15 94 13 110 -3 24 -7 28 -31 25 -33 -4 -57 13 -57 39 0 10 23 44 50 75 50 57 67 92 57 117 -4 11 -27 13 -104 9 -79 -4 -101 -2 -111 10 -20 24 4 35 99 46 75 8 97 15 174 58 154 86 314 242 385 376 37 69 171 250 234 316 48 51 121 107 185 142 53 29 62 57 18 52 -16 -2 -35 2 -43 9 -18 15 -18 74 2 131 9 27 14 70 12 104 -3 51 -6 59 -24 62 -32 5 -48 -25 -83 -153 -18 -66 -39 -130 -48 -143 -8 -13 -57 -76 -110 -139 -52 -64 -134 -175 -181 -247 -46 -72 -96 -148 -110 -168 -50 -76 -179 -188 -258 -224 -161 -73 -234 -78 -234 -16 0 32 42 180 63 221 72 139 129 219 256 358 75 84 142 163 148 175 35 72 89 206 117 294 40 124 70 167 218 320 65 67 118 126 118 132 0 6 -9 16 -19 22 -45 24 -67 12 -186 -96 -155 -142 -154 -140 -249 -404 -23 -63 -63 -155 -90 -203 -40 -75 -59 -97 -122 -148 -63 -49 -79 -57 -94 -49 -32 17 -38 41 -29 110 13 107 33 532 26 570 -4 19 -11 62 -16 95 -30 187 -32 193 -62 156 -21 -26 -20 -16 -23 -356 -1 -160 -6 -251 -20 -335 -18 -112 -18 -163 0 -325 6 -57 -17 -127 -91 -280 -41 -85 -57 -133 -87 -265 -17 -71 -56 -100 -134 -100 -43 0 -55 4 -64 20 -15 28 -4 100 27 177 32 82 33 225 4 363 -41 190 -50 226 -60 254 -13 31 -83 319 -102 411 -18 92 -14 205 9 257 15 35 36 56 99 101 88 61 105 90 73 130 l-18 22 -49 -34 c-26 -19 -70 -50 -98 -69 -27 -19 -58 -47 -68 -63 -40 -62 -49 -27 -40 154 l6 137 -27 0 c-22 0 -30 -8 -46 -42z"/>
</g>
</svg>