 <svg version="1.0" xmlns="http://www.w3.org/2000/svg" width="700.000000pt" height="703.000000pt" viewBox="0 0 700.000000 703.000000" preserveAspectRatio="xMidYMid meet">
<metadata>
Created by potrace 1.12, written by Peter Selinger 2001-2015
</metadata>
<g transform="translate(0.000000,703.000000) scale(0.100000,-0.100000)" fill="#000000" stroke="none">
<path d="M3460 7003 c-56 -26 -215 -91 -555 -225 -82 -32 -159 -63 -170 -68
-11 -5 -85 -34 -165 -65 -80 -31 -154 -60 -165 -65 -19 -8 -79 -32 -475 -190
-85 -34 -164 -65 -175 -70 -11 -5 -54 -23 -95 -39 -41 -16 -120 -47 -175 -69
-55 -22 -143 -57 -195 -77 -52 -21 -108 -43 -125 -50 -16 -7 -50 -20 -75 -31
-54 -22 -71 -34 -65 -45 3 -4 -1 -11 -8 -16 -8 -4 -43 -78 -77 -163 -84 -207
-118 -293 -175 -430 -26 -63 -74 -182 -107 -265 -33 -82 -63 -159 -68 -170 -5
-11 -23 -54 -39 -95 -37 -96 -208 -527 -222 -560 -6 -14 -51 -126 -101 -250
-49 -124 -93 -234 -98 -245 -5 -11 -28 -67 -51 -125 -23 -58 -48 -115 -56
-127 -20 -29 -13 -65 14 -79 13 -6 21 -13 18 -16 -3 -2 20 -67 51 -144 31 -76
69 -173 85 -214 16 -41 34 -84 38 -95 5 -11 40 -96 76 -190 37 -93 73 -184 81
-202 8 -17 14 -34 14 -38 0 -4 6 -21 14 -38 17 -36 124 -303 168 -417 15 -41
33 -84 38 -95 12 -26 177 -441 245 -615 29 -74 67 -170 84 -213 18 -43 29 -82
26 -87 -3 -5 5 -25 17 -44 23 -35 33 -41 178 -97 41 -17 89 -36 105 -44 17 -7
125 -51 240 -98 199 -80 243 -98 290 -118 11 -5 54 -22 95 -38 41 -16 138 -54
215 -86 77 -31 190 -76 250 -99 120 -47 558 -222 590 -236 11 -5 128 -52 260
-105 132 -52 252 -104 267 -115 36 -26 42 -26 118 16 64 34 164 77 465 196 83
33 159 63 170 68 11 5 54 23 95 38 104 40 381 151 405 162 11 5 45 19 75 30
30 11 64 25 75 30 11 5 54 23 95 39 173 67 387 153 415 166 17 8 138 58 270
111 283 113 296 120 289 138 -4 9 2 16 17 18 18 2 28 17 46 63 13 33 37 92 53
130 16 39 68 169 115 290 47 121 90 229 95 240 5 11 30 72 55 135 25 63 50
124 55 135 4 11 38 97 75 190 37 94 70 179 75 190 5 11 59 146 120 300 61 154
115 289 120 300 41 91 200 506 200 522 0 17 -282 740 -330 848 -5 11 -64 157
-130 325 -67 168 -126 314 -130 325 -5 11 -48 117 -96 235 -81 203 -113 280
-221 545 -25 61 -54 130 -63 155 -10 24 -24 48 -31 51 -8 4 -108 44 -224 89
-115 45 -221 86 -235 92 -14 6 -261 104 -550 220 -289 115 -534 213 -545 218
-11 5 -153 61 -315 125 -364 145 -354 141 -415 171 -28 13 -57 24 -65 24 -8 0
-39 11 -68 25 -62 29 -57 28 -102 8z m157 -317 c59 -24 153 -63 208 -86 55
-23 125 -51 155 -62 30 -11 74 -29 97 -39 23 -11 99 -42 170 -70 343 -136 630
-251 648 -259 11 -5 90 -36 175 -70 390 -155 456 -182 475 -190 11 -4 76 -31
145 -58 69 -28 128 -56 132 -64 4 -7 35 -82 68 -165 128 -325 181 -459 190
-478 5 -11 48 -119 95 -240 47 -121 90 -229 95 -240 5 -11 104 -258 220 -550
116 -291 217 -545 225 -563 16 -34 14 -39 -155 -447 -84 -203 -108 -261 -111
-273 -2 -6 -4 61 -4 150 0 181 -14 269 -66 414 -30 81 -33 86 -125 167 -225
199 -416 265 -695 238 -66 -6 -229 -30 -362 -52 -218 -37 -259 -42 -417 -42
-204 -1 -333 19 -527 80 -151 49 -195 48 -463 -7 -214 -44 -356 -65 -502 -76
-85 -7 -87 -6 -134 25 -105 69 -267 96 -549 89 -101 -2 -187 -7 -191 -11 -4
-4 6 -22 23 -40 16 -17 64 -84 106 -147 79 -122 136 -182 195 -207 48 -20 227
-32 472 -33 322 0 549 -29 690 -89 130 -54 381 -240 584 -430 117 -111 134
-118 238 -107 78 8 201 49 405 138 100 43 186 73 214 76 l48 4 11 -43 c6 -24
13 -51 16 -59 3 -8 10 -58 14 -110 8 -86 6 -104 -16 -182 -13 -48 -24 -113
-24 -146 0 -33 -6 -66 -14 -77 -12 -17 -15 -12 -36 51 -36 109 -86 211 -110
224 -38 20 -45 0 -46 -133 -1 -132 -12 -177 -43 -177 -24 0 -99 84 -107 119
-11 54 -37 102 -53 99 -13 -3 -20 -32 -33 -136 -20 -157 -40 -231 -72 -268
-31 -36 -56 -27 -56 20 0 20 -22 91 -50 159 -54 134 -65 213 -35 253 19 24 19
34 0 34 -8 0 -21 -13 -29 -29 -23 -44 -56 -171 -56 -216 -1 -35 -2 -38 -12
-20 -8 13 -12 75 -12 167 -1 82 -4 148 -7 148 -12 0 -68 -136 -83 -200 -9 -36
-16 -102 -16 -147 0 -79 -11 -107 -25 -63 -3 11 -22 43 -42 71 -20 29 -64 115
-99 192 -88 192 -125 245 -194 279 -30 14 -58 24 -63 21 -15 -9 4 -65 83 -253
107 -250 129 -353 84 -391 -11 -9 -14 -7 -14 14 0 14 -4 28 -9 32 -5 3 -17 29
-27 57 -35 107 -227 401 -311 478 -56 51 -67 57 -78 40 -12 -20 17 -254 41
-329 32 -101 31 -104 -14 -35 -62 96 -108 186 -122 237 -7 26 -17 50 -23 54
-17 10 -45 -35 -52 -82 -12 -75 25 -328 60 -416 9 -23 -195 -155 -263 -169
-96 -21 -264 19 -291 68 -5 10 -15 65 -21 122 -23 216 -68 340 -122 340 -22 0
-22 0 -3 -120 14 -93 11 -188 -11 -394 l-7 -58 -28 66 c-15 36 -49 138 -74
226 -87 306 -129 393 -246 512 -114 116 -117 86 -12 -134 62 -130 68 -150 71
-218 l4 -75 -66 110 c-62 103 -86 157 -86 196 0 22 -39 71 -51 64 -11 -7 -11
-221 0 -317 4 -38 6 -68 4 -68 -1 0 -13 19 -27 43 -61 104 -101 293 -111 522
-6 114 -4 148 9 184 19 51 19 51 6 51 -5 0 -14 -17 -20 -39 -5 -21 -23 -67
-39 -102 -37 -84 -57 -155 -71 -258 -10 -76 -9 -108 6 -196 5 -25 0 -21 -28
24 -18 30 -39 56 -45 59 -19 6 -17 -147 2 -195 20 -53 45 -286 52 -485 8 -231
32 -224 77 20 9 46 21 92 27 104 11 21 12 21 25 4 32 -45 70 -333 62 -480 -1
-36 0 -66 3 -66 11 0 48 109 60 177 12 70 18 247 9 298 -7 44 21 39 44 -8 19
-40 36 -132 61 -342 9 -71 20 -134 26 -140 15 -14 45 26 54 71 3 21 22 68 41
106 25 50 34 80 34 118 0 27 4 50 9 50 11 0 20 -53 28 -177 3 -57 9 -103 13
-103 4 0 11 25 15 55 3 30 11 57 16 60 8 6 12 -48 14 -172 0 -63 12 -61 25 4
20 94 42 120 53 63 4 -18 -1 -45 -13 -72 -21 -50 -100 -330 -100 -359 0 -18
10 -19 249 -19 l250 0 19 28 c29 41 40 84 57 226 9 71 23 145 31 165 30 72 98
121 166 121 78 0 71 15 118 -276 l43 -264 216 0 216 0 -1 187 c-1 114 -6 211
-14 245 -12 51 -11 67 5 135 13 52 19 118 19 200 1 68 2 123 4 123 2 0 14 -24
28 -54 30 -65 74 -253 74 -316 0 -25 4 -51 9 -59 12 -18 41 -7 41 16 0 10 9
47 20 82 15 46 22 105 26 205 7 165 8 173 29 156 40 -33 93 -297 73 -366 -12
-46 -7 -89 12 -89 10 0 18 21 26 71 7 39 22 106 34 148 12 43 25 114 29 159
l7 82 17 -54 c13 -42 17 -95 18 -230 0 -102 4 -168 9 -156 4 11 23 67 41 125
32 100 34 112 34 254 0 82 1 141 3 130 9 -51 77 -264 98 -305 24 -49 71 -109
84 -109 11 0 28 47 35 100 27 191 54 304 71 287 2 -2 -1 -47 -7 -99 -9 -83 -9
-99 5 -127 18 -34 42 -41 50 -13 2 9 10 58 17 107 6 50 16 101 21 114 8 23 10
23 26 7 14 -14 18 -41 20 -166 3 -122 6 -150 18 -150 65 0 151 245 141 405
l-5 80 37 -147 c47 -191 60 -195 83 -25 8 58 14 79 16 57 4 -60 13 -100 21
-100 4 0 14 11 21 25 16 29 21 26 35 -22 6 -19 15 -35 20 -35 17 -2 46 69 60
145 12 71 61 197 75 197 4 0 14 -15 21 -32 7 -18 35 -64 60 -103 63 -93 69
-134 69 -439 0 -138 5 -295 10 -349 9 -93 8 -102 -14 -155 -24 -56 -25 -57
-98 -85 -40 -15 -82 -32 -93 -37 -11 -5 -89 -36 -173 -70 -83 -33 -221 -87
-305 -120 -83 -34 -161 -65 -172 -70 -11 -5 -119 -47 -240 -95 -121 -47 -229
-90 -240 -95 -24 -11 -558 -224 -795 -317 -91 -35 -173 -68 -182 -73 -16 -9
-32 -5 -113 29 -11 5 -38 15 -60 24 -22 8 -67 26 -100 40 -33 13 -76 30 -95
37 -19 7 -48 19 -65 26 -47 20 -482 193 -565 225 -41 16 -84 34 -95 39 -11 5
-119 48 -240 95 -121 47 -229 90 -240 95 -11 5 -54 23 -95 38 -101 39 -380
151 -405 162 -65 30 -206 80 -213 76 -4 -2 -38 73 -76 167 -37 95 -74 186 -81
202 -7 17 -65 163 -130 325 -64 162 -121 304 -125 315 -5 11 -71 173 -146 360
-157 393 -173 433 -185 460 -4 11 -20 49 -34 85 -14 36 -30 74 -35 85 -5 11
-25 61 -46 110 -21 50 -40 92 -44 95 -4 3 -7 12 -7 20 -1 8 -11 43 -23 76
l-23 62 48 123 c26 68 53 138 61 154 7 17 39 95 70 175 31 80 68 168 81 195
24 49 75 180 94 240 5 17 13 39 18 50 10 19 107 263 158 395 14 36 43 110 65
165 22 55 67 168 100 250 32 83 65 164 72 180 7 17 35 86 62 154 40 101 53
125 74 132 14 5 34 14 45 19 11 5 157 63 325 130 168 66 314 125 325 130 17 8
721 289 1080 432 55 22 114 46 130 53 17 7 55 23 85 35 30 12 64 26 75 31 11
4 49 20 85 34 36 15 79 32 95 39 36 16 58 24 67 25 4 1 56 -19 115 -43z"></path>
<path d="M2894 5591 c-46 -21 -63 -50 -89 -150 -48 -189 -86 -211 -358 -219
-172 -4 -179 -5 -193 -27 -26 -40 -28 -87 -5 -117 25 -32 82 -51 211 -73 96
-16 130 -33 130 -66 0 -32 -83 -160 -149 -231 -84 -90 -209 -173 -408 -269
-160 -78 -162 -79 -241 -79 -61 0 -95 -6 -148 -26 -47 -17 -78 -24 -100 -19
-35 6 -82 52 -110 108 -9 17 -37 61 -60 96 -53 77 -57 117 -18 218 71 187 87
240 80 276 -8 42 -31 54 -59 30 -11 -10 -73 -93 -138 -184 -75 -106 -126 -168
-140 -172 -17 -5 -32 5 -70 44 -26 27 -52 49 -57 49 -21 0 -69 -50 -96 -99
-21 -40 -26 -59 -21 -83 10 -45 80 -110 225 -208 115 -79 170 -132 170 -166 0
-8 -12 -22 -27 -31 -32 -21 -130 -23 -358 -9 -205 13 -221 5 -244 -118 -12
-67 1 -102 42 -110 12 -3 74 -17 137 -33 106 -26 130 -28 310 -28 208 0 270 8
455 62 460 132 949 464 1175 798 79 116 222 487 250 651 16 90 9 173 -16 191
-23 17 -31 16 -80 -6z"></path>
<path d="M3566 5136 c-59 -22 -88 -47 -113 -96 -37 -72 -25 -160 30 -218 23
-25 92 -64 137 -77 101 -30 160 -80 160 -134 0 -31 -48 -79 -90 -92 -76 -23
-150 13 -191 92 -13 26 -26 39 -39 39 -18 0 -20 -7 -20 -74 l0 -75 58 -17
c126 -39 250 -17 316 56 39 43 50 86 44 164 -8 91 -65 141 -218 191 -104 34
-141 108 -86 172 21 24 32 28 74 28 60 0 94 -26 123 -92 13 -31 24 -43 39 -43
18 0 20 6 20 58 0 86 -6 98 -53 112 -66 20 -147 22 -191 6z"></path>
<path d="M4203 5127 c-8 -13 9 -25 42 -29 28 -3 30 -6 36 -58 3 -30 3 -161 0
-290 -6 -225 -7 -235 -26 -238 -50 -7 -66 -14 -62 -25 2 -8 50 -12 166 -12
140 -1 161 1 159 14 -2 9 -23 23 -48 32 l-45 17 0 123 0 124 33 -2 c18 0 40
-7 49 -15 9 -7 47 -76 83 -153 l67 -140 106 0 c59 1 107 5 108 9 0 5 -16 18
-37 30 -29 17 -54 50 -117 155 -44 74 -76 136 -71 138 31 10 77 48 94 75 27
45 27 120 -1 164 -11 19 -42 47 -67 62 l-47 27 -208 1 c-116 0 -210 -3 -214
-9z m367 -75 c35 -35 49 -106 28 -148 -21 -45 -59 -66 -119 -68 l-54 -1 -3
123 -3 122 61 0 c54 0 65 -3 90 -28z"></path>
<path d="M5150 5119 c0 -11 15 -20 44 -28 l44 -11 7 -102 c3 -57 5 -179 3
-273 l-3 -170 -47 -14 c-31 -10 -48 -20 -48 -30 0 -14 21 -16 172 -15 120 1
173 4 176 12 4 14 -38 32 -74 32 -36 0 -45 36 -42 159 l3 106 88 3 c98 3 110
-2 132 -56 8 -19 20 -32 27 -30 16 6 24 216 9 231 -15 15 -41 -10 -41 -38 0
-40 -25 -50 -124 -50 l-91 0 0 115 0 115 120 0 120 0 23 -42 c15 -28 30 -43
43 -43 18 0 20 6 17 72 l-3 71 -278 1 c-250 1 -277 -1 -277 -15z"></path>
<path d="M2340 4054 c-25 -9 -110 -47 -190 -85 -102 -48 -184 -79 -278 -104
-73 -19 -141 -39 -150 -44 -9 -5 -59 -12 -110 -16 -112 -9 -200 -29 -396 -90
-218 -68 -259 -93 -306 -189 -42 -85 -53 -159 -47 -306 5 -142 27 -217 76
-264 25 -24 40 -29 99 -34 119 -8 292 35 292 72 0 9 -22 59 -50 111 -55 105
-60 130 -30 167 36 47 79 59 248 69 251 16 274 27 337 163 46 97 82 139 154
175 21 11 45 30 53 43 9 13 34 37 57 52 57 40 69 25 36 -45 -13 -30 -25 -59
-25 -66 0 -22 31 -43 65 -43 28 0 40 8 68 43 114 143 202 350 167 392 -15 18
-13 18 -70 -1z"></path>
</g>
</svg>